ISO-10303-21;
HEADER;
/* Generated by software containing ST-Developer
 * from STEP Tools, Inc. (www.steptools.com) 
 */

FILE_DESCRIPTION(
/* description */ (''),
/* implementation_level */ '2;1');

FILE_NAME(
/* name */ 'plate holder_backlight_back.step',
/* time_stamp */ '2026-09-02T10:20:44+02:00',
/* author */ (''),
/* organization */ (''),
/* preprocessor_version */ 'ST-DEVELOPER v20.1',
/* originating_system */ 'Autodesk Translation Framework v15.8.0.0',
/* authorisation */ '');

FILE_SCHEMA (('AUTOMOTIVE_DESIGN { 1 0 10303 214 3 1 1 }'));
ENDSEC;

DATA;
#10=MECHANICAL_DESIGN_GEOMETRIC_PRESENTATION_REPRESENTATION('',(#17),#2273);
#11=ITEM_DEFINED_TRANSFORMATION($,$,#1413,#1508);
#12=(
REPRESENTATION_RELATIONSHIP($,$,#2284,#2283)
REPRESENTATION_RELATIONSHIP_WITH_TRANSFORMATION(#11)
SHAPE_REPRESENTATION_RELATIONSHIP()
);
#13=CONTEXT_DEPENDENT_SHAPE_REPRESENTATION(#12,#2282);
#14=NEXT_ASSEMBLY_USAGE_OCCURRENCE('plate-holder_backlight:1',
'plate-holder_backlight:1','plate-holder_backlight:1',#2286,#2287,
'plate-holder_backlight:1');
#15=SHAPE_REPRESENTATION_RELATIONSHIP('SRR','None',#2284,#16);
#16=ADVANCED_BREP_SHAPE_REPRESENTATION('',(#18),#2272);
#17=STYLED_ITEM('',(#2298),#18);
#18=MANIFOLD_SOLID_BREP('plate-holder_backlight_back',#1399);
#19=FACE_BOUND('',#192,.T.);
#20=FACE_BOUND('',#193,.T.);
#21=FACE_BOUND('',#203,.T.);
#22=FACE_BOUND('',#204,.T.);
#23=PLANE('',#1417);
#24=PLANE('',#1418);
#25=PLANE('',#1419);
#26=PLANE('',#1420);
#27=PLANE('',#1422);
#28=PLANE('',#1423);
#29=PLANE('',#1425);
#30=PLANE('',#1426);
#31=PLANE('',#1427);
#32=PLANE('',#1428);
#33=PLANE('',#1429);
#34=PLANE('',#1430);
#35=PLANE('',#1431);
#36=PLANE('',#1432);
#37=PLANE('',#1433);
#38=PLANE('',#1434);
#39=PLANE('',#1435);
#40=PLANE('',#1436);
#41=PLANE('',#1437);
#42=PLANE('',#1438);
#43=PLANE('',#1439);
#44=PLANE('',#1440);
#45=PLANE('',#1441);
#46=PLANE('',#1442);
#47=PLANE('',#1443);
#48=PLANE('',#1446);
#49=PLANE('',#1447);
#50=PLANE('',#1448);
#51=PLANE('',#1449);
#52=PLANE('',#1450);
#53=PLANE('',#1451);
#54=PLANE('',#1452);
#55=PLANE('',#1453);
#56=PLANE('',#1454);
#57=PLANE('',#1455);
#58=PLANE('',#1456);
#59=PLANE('',#1457);
#60=PLANE('',#1458);
#61=PLANE('',#1459);
#62=PLANE('',#1460);
#63=PLANE('',#1461);
#64=PLANE('',#1462);
#65=PLANE('',#1463);
#66=PLANE('',#1464);
#67=PLANE('',#1465);
#68=PLANE('',#1466);
#69=PLANE('',#1467);
#70=PLANE('',#1468);
#71=PLANE('',#1469);
#72=PLANE('',#1470);
#73=PLANE('',#1472);
#74=PLANE('',#1473);
#75=PLANE('',#1475);
#76=PLANE('',#1484);
#77=PLANE('',#1485);
#78=PLANE('',#1486);
#79=PLANE('',#1487);
#80=PLANE('',#1488);
#81=PLANE('',#1489);
#82=PLANE('',#1490);
#83=PLANE('',#1491);
#84=PLANE('',#1492);
#85=PLANE('',#1493);
#86=PLANE('',#1494);
#87=PLANE('',#1495);
#88=PLANE('',#1496);
#89=PLANE('',#1500);
#90=PLANE('',#1501);
#91=PLANE('',#1502);
#92=PLANE('',#1503);
#93=PLANE('',#1504);
#94=PLANE('',#1505);
#95=PLANE('',#1506);
#96=PLANE('',#1507);
#97=FACE_OUTER_BOUND('',#175,.T.);
#98=FACE_OUTER_BOUND('',#176,.T.);
#99=FACE_OUTER_BOUND('',#177,.T.);
#100=FACE_OUTER_BOUND('',#178,.T.);
#101=FACE_OUTER_BOUND('',#179,.T.);
#102=FACE_OUTER_BOUND('',#180,.T.);
#103=FACE_OUTER_BOUND('',#181,.T.);
#104=FACE_OUTER_BOUND('',#182,.T.);
#105=FACE_OUTER_BOUND('',#183,.T.);
#106=FACE_OUTER_BOUND('',#184,.T.);
#107=FACE_OUTER_BOUND('',#185,.T.);
#108=FACE_OUTER_BOUND('',#186,.T.);
#109=FACE_OUTER_BOUND('',#187,.T.);
#110=FACE_OUTER_BOUND('',#188,.T.);
#111=FACE_OUTER_BOUND('',#189,.T.);
#112=FACE_OUTER_BOUND('',#190,.T.);
#113=FACE_OUTER_BOUND('',#191,.T.);
#114=FACE_OUTER_BOUND('',#194,.T.);
#115=FACE_OUTER_BOUND('',#195,.T.);
#116=FACE_OUTER_BOUND('',#196,.T.);
#117=FACE_OUTER_BOUND('',#197,.T.);
#118=FACE_OUTER_BOUND('',#198,.T.);
#119=FACE_OUTER_BOUND('',#199,.T.);
#120=FACE_OUTER_BOUND('',#200,.T.);
#121=FACE_OUTER_BOUND('',#201,.T.);
#122=FACE_OUTER_BOUND('',#202,.T.);
#123=FACE_OUTER_BOUND('',#205,.T.);
#124=FACE_OUTER_BOUND('',#206,.T.);
#125=FACE_OUTER_BOUND('',#207,.T.);
#126=FACE_OUTER_BOUND('',#208,.T.);
#127=FACE_OUTER_BOUND('',#209,.T.);
#128=FACE_OUTER_BOUND('',#210,.T.);
#129=FACE_OUTER_BOUND('',#211,.T.);
#130=FACE_OUTER_BOUND('',#212,.T.);
#131=FACE_OUTER_BOUND('',#213,.T.);
#132=FACE_OUTER_BOUND('',#214,.T.);
#133=FACE_OUTER_BOUND('',#215,.T.);
#134=FACE_OUTER_BOUND('',#216,.T.);
#135=FACE_OUTER_BOUND('',#217,.T.);
#136=FACE_OUTER_BOUND('',#218,.T.);
#137=FACE_OUTER_BOUND('',#219,.T.);
#138=FACE_OUTER_BOUND('',#220,.T.);
#139=FACE_OUTER_BOUND('',#221,.T.);
#140=FACE_OUTER_BOUND('',#222,.T.);
#141=FACE_OUTER_BOUND('',#223,.T.);
#142=FACE_OUTER_BOUND('',#224,.T.);
#143=FACE_OUTER_BOUND('',#225,.T.);
#144=FACE_OUTER_BOUND('',#226,.T.);
#145=FACE_OUTER_BOUND('',#227,.T.);
#146=FACE_OUTER_BOUND('',#228,.T.);
#147=FACE_OUTER_BOUND('',#229,.T.);
#148=FACE_OUTER_BOUND('',#230,.T.);
#149=FACE_OUTER_BOUND('',#231,.T.);
#150=FACE_OUTER_BOUND('',#232,.T.);
#151=FACE_OUTER_BOUND('',#233,.T.);
#152=FACE_OUTER_BOUND('',#234,.T.);
#153=FACE_OUTER_BOUND('',#235,.T.);
#154=FACE_OUTER_BOUND('',#236,.T.);
#155=FACE_OUTER_BOUND('',#237,.T.);
#156=FACE_OUTER_BOUND('',#238,.T.);
#157=FACE_OUTER_BOUND('',#239,.T.);
#158=FACE_OUTER_BOUND('',#240,.T.);
#159=FACE_OUTER_BOUND('',#241,.T.);
#160=FACE_OUTER_BOUND('',#242,.T.);
#161=FACE_OUTER_BOUND('',#243,.T.);
#162=FACE_OUTER_BOUND('',#244,.T.);
#163=FACE_OUTER_BOUND('',#245,.T.);
#164=FACE_OUTER_BOUND('',#246,.T.);
#165=FACE_OUTER_BOUND('',#247,.T.);
#166=FACE_OUTER_BOUND('',#248,.T.);
#167=FACE_OUTER_BOUND('',#249,.T.);
#168=FACE_OUTER_BOUND('',#250,.T.);
#169=FACE_OUTER_BOUND('',#251,.T.);
#170=FACE_OUTER_BOUND('',#252,.T.);
#171=FACE_OUTER_BOUND('',#253,.T.);
#172=FACE_OUTER_BOUND('',#254,.T.);
#173=FACE_OUTER_BOUND('',#255,.T.);
#174=FACE_OUTER_BOUND('',#256,.T.);
#175=EDGE_LOOP('',(#933,#934,#935,#936));
#176=EDGE_LOOP('',(#937,#938,#939));
#177=EDGE_LOOP('',(#940,#941,#942,#943,#944));
#178=EDGE_LOOP('',(#945,#946,#947));
#179=EDGE_LOOP('',(#948,#949,#950));
#180=EDGE_LOOP('',(#951,#952,#953,#954));
#181=EDGE_LOOP('',(#955,#956,#957,#958));
#182=EDGE_LOOP('',(#959,#960,#961,#962));
#183=EDGE_LOOP('',(#963,#964,#965,#966,#967,#968,#969,#970));
#184=EDGE_LOOP('',(#971,#972,#973));
#185=EDGE_LOOP('',(#974,#975,#976,#977,#978));
#186=EDGE_LOOP('',(#979,#980,#981,#982,#983,#984,#985,#986,#987,#988,#989,
#990,#991,#992,#993,#994));
#187=EDGE_LOOP('',(#995,#996,#997,#998));
#188=EDGE_LOOP('',(#999,#1000,#1001,#1002));
#189=EDGE_LOOP('',(#1003,#1004,#1005,#1006));
#190=EDGE_LOOP('',(#1007,#1008,#1009,#1010));
#191=EDGE_LOOP('',(#1011,#1012,#1013,#1014,#1015,#1016,#1017,#1018,#1019,
#1020,#1021,#1022,#1023,#1024,#1025,#1026,#1027,#1028,#1029,#1030,#1031,
#1032));
#192=EDGE_LOOP('',(#1033,#1034,#1035,#1036));
#193=EDGE_LOOP('',(#1037,#1038,#1039,#1040));
#194=EDGE_LOOP('',(#1041,#1042,#1043,#1044,#1045,#1046));
#195=EDGE_LOOP('',(#1047,#1048,#1049,#1050,#1051,#1052,#1053,#1054));
#196=EDGE_LOOP('',(#1055,#1056,#1057,#1058));
#197=EDGE_LOOP('',(#1059,#1060,#1061,#1062));
#198=EDGE_LOOP('',(#1063,#1064,#1065,#1066,#1067,#1068));
#199=EDGE_LOOP('',(#1069,#1070,#1071,#1072));
#200=EDGE_LOOP('',(#1073,#1074,#1075,#1076));
#201=EDGE_LOOP('',(#1077,#1078,#1079,#1080));
#202=EDGE_LOOP('',(#1081,#1082,#1083,#1084));
#203=EDGE_LOOP('',(#1085));
#204=EDGE_LOOP('',(#1086));
#205=EDGE_LOOP('',(#1087,#1088,#1089,#1090));
#206=EDGE_LOOP('',(#1091,#1092,#1093,#1094));
#207=EDGE_LOOP('',(#1095,#1096,#1097,#1098));
#208=EDGE_LOOP('',(#1099,#1100,#1101,#1102));
#209=EDGE_LOOP('',(#1103,#1104,#1105,#1106));
#210=EDGE_LOOP('',(#1107,#1108,#1109,#1110));
#211=EDGE_LOOP('',(#1111,#1112,#1113,#1114));
#212=EDGE_LOOP('',(#1115,#1116,#1117,#1118));
#213=EDGE_LOOP('',(#1119,#1120,#1121,#1122));
#214=EDGE_LOOP('',(#1123,#1124,#1125,#1126));
#215=EDGE_LOOP('',(#1127,#1128,#1129,#1130));
#216=EDGE_LOOP('',(#1131,#1132,#1133,#1134));
#217=EDGE_LOOP('',(#1135,#1136,#1137,#1138));
#218=EDGE_LOOP('',(#1139,#1140,#1141,#1142));
#219=EDGE_LOOP('',(#1143,#1144,#1145,#1146));
#220=EDGE_LOOP('',(#1147,#1148,#1149,#1150));
#221=EDGE_LOOP('',(#1151,#1152,#1153,#1154));
#222=EDGE_LOOP('',(#1155,#1156,#1157,#1158));
#223=EDGE_LOOP('',(#1159,#1160,#1161,#1162));
#224=EDGE_LOOP('',(#1163,#1164,#1165,#1166));
#225=EDGE_LOOP('',(#1167,#1168,#1169,#1170));
#226=EDGE_LOOP('',(#1171,#1172,#1173,#1174));
#227=EDGE_LOOP('',(#1175,#1176,#1177,#1178));
#228=EDGE_LOOP('',(#1179,#1180,#1181,#1182,#1183));
#229=EDGE_LOOP('',(#1184,#1185,#1186,#1187));
#230=EDGE_LOOP('',(#1188,#1189,#1190,#1191,#1192));
#231=EDGE_LOOP('',(#1193,#1194,#1195,#1196));
#232=EDGE_LOOP('',(#1197,#1198,#1199,#1200));
#233=EDGE_LOOP('',(#1201,#1202,#1203,#1204,#1205,#1206,#1207,#1208));
#234=EDGE_LOOP('',(#1209,#1210,#1211,#1212,#1213,#1214,#1215,#1216));
#235=EDGE_LOOP('',(#1217,#1218,#1219,#1220,#1221));
#236=EDGE_LOOP('',(#1222,#1223,#1224,#1225));
#237=EDGE_LOOP('',(#1226,#1227,#1228,#1229,#1230,#1231,#1232,#1233));
#238=EDGE_LOOP('',(#1234,#1235,#1236,#1237,#1238));
#239=EDGE_LOOP('',(#1239,#1240,#1241,#1242));
#240=EDGE_LOOP('',(#1243,#1244,#1245,#1246,#1247,#1248,#1249));
#241=EDGE_LOOP('',(#1250,#1251,#1252,#1253));
#242=EDGE_LOOP('',(#1254,#1255,#1256,#1257));
#243=EDGE_LOOP('',(#1258,#1259,#1260,#1261));
#244=EDGE_LOOP('',(#1262,#1263,#1264,#1265,#1266,#1267,#1268));
#245=EDGE_LOOP('',(#1269,#1270,#1271,#1272));
#246=EDGE_LOOP('',(#1273,#1274,#1275,#1276));
#247=EDGE_LOOP('',(#1277,#1278,#1279,#1280));
#248=EDGE_LOOP('',(#1281,#1282,#1283,#1284));
#249=EDGE_LOOP('',(#1285,#1286,#1287));
#250=EDGE_LOOP('',(#1288,#1289,#1290));
#251=EDGE_LOOP('',(#1291,#1292,#1293,#1294,#1295,#1296,#1297,#1298));
#252=EDGE_LOOP('',(#1299,#1300));
#253=EDGE_LOOP('',(#1301,#1302,#1303,#1304,#1305,#1306,#1307,#1308));
#254=EDGE_LOOP('',(#1309,#1310));
#255=EDGE_LOOP('',(#1311,#1312,#1313));
#256=EDGE_LOOP('',(#1314,#1315,#1316));
#257=LINE('',#1886,#433);
#258=LINE('',#1889,#434);
#259=LINE('',#1892,#435);
#260=LINE('',#1893,#436);
#261=LINE('',#1896,#437);
#262=LINE('',#1898,#438);
#263=LINE('',#1900,#439);
#264=LINE('',#1901,#440);
#265=LINE('',#1904,#441);
#266=LINE('',#1905,#442);
#267=LINE('',#1910,#443);
#268=LINE('',#1911,#444);
#269=LINE('',#1914,#445);
#270=LINE('',#1915,#446);
#271=LINE('',#1919,#447);
#272=LINE('',#1920,#448);
#273=LINE('',#1923,#449);
#274=LINE('',#1925,#450);
#275=LINE('',#1927,#451);
#276=LINE('',#1929,#452);
#277=LINE('',#1930,#453);
#278=LINE('',#1931,#454);
#279=LINE('',#1937,#455);
#280=LINE('',#1939,#456);
#281=LINE('',#1941,#457);
#282=LINE('',#1943,#458);
#283=LINE('',#1945,#459);
#284=LINE('',#1947,#460);
#285=LINE('',#1949,#461);
#286=LINE('',#1951,#462);
#287=LINE('',#1953,#463);
#288=LINE('',#1954,#464);
#289=LINE('',#1956,#465);
#290=LINE('',#1958,#466);
#291=LINE('',#1959,#467);
#292=LINE('',#1962,#468);
#293=LINE('',#1963,#469);
#294=LINE('',#1966,#470);
#295=LINE('',#1968,#471);
#296=LINE('',#1969,#472);
#297=LINE('',#1971,#473);
#298=LINE('',#1974,#474);
#299=LINE('',#1976,#475);
#300=LINE('',#1977,#476);
#301=LINE('',#1981,#477);
#302=LINE('',#1983,#478);
#303=LINE('',#1984,#479);
#304=LINE('',#1986,#480);
#305=LINE('',#1987,#481);
#306=LINE('',#1989,#482);
#307=LINE('',#1991,#483);
#308=LINE('',#1993,#484);
#309=LINE('',#1995,#485);
#310=LINE('',#1997,#486);
#311=LINE('',#1999,#487);
#312=LINE('',#2001,#488);
#313=LINE('',#2003,#489);
#314=LINE('',#2005,#490);
#315=LINE('',#2007,#491);
#316=LINE('',#2009,#492);
#317=LINE('',#2011,#493);
#318=LINE('',#2013,#494);
#319=LINE('',#2014,#495);
#320=LINE('',#2017,#496);
#321=LINE('',#2019,#497);
#322=LINE('',#2021,#498);
#323=LINE('',#2022,#499);
#324=LINE('',#2025,#500);
#325=LINE('',#2027,#501);
#326=LINE('',#2029,#502);
#327=LINE('',#2030,#503);
#328=LINE('',#2033,#504);
#329=LINE('',#2034,#505);
#330=LINE('',#2037,#506);
#331=LINE('',#2039,#507);
#332=LINE('',#2040,#508);
#333=LINE('',#2041,#509);
#334=LINE('',#2044,#510);
#335=LINE('',#2046,#511);
#336=LINE('',#2047,#512);
#337=LINE('',#2050,#513);
#338=LINE('',#2051,#514);
#339=LINE('',#2054,#515);
#340=LINE('',#2055,#516);
#341=LINE('',#2058,#517);
#342=LINE('',#2059,#518);
#343=LINE('',#2061,#519);
#344=LINE('',#2063,#520);
#345=LINE('',#2071,#521);
#346=LINE('',#2073,#522);
#347=LINE('',#2074,#523);
#348=LINE('',#2077,#524);
#349=LINE('',#2078,#525);
#350=LINE('',#2081,#526);
#351=LINE('',#2082,#527);
#352=LINE('',#2085,#528);
#353=LINE('',#2086,#529);
#354=LINE('',#2089,#530);
#355=LINE('',#2090,#531);
#356=LINE('',#2093,#532);
#357=LINE('',#2094,#533);
#358=LINE('',#2097,#534);
#359=LINE('',#2098,#535);
#360=LINE('',#2101,#536);
#361=LINE('',#2102,#537);
#362=LINE('',#2105,#538);
#363=LINE('',#2106,#539);
#364=LINE('',#2109,#540);
#365=LINE('',#2110,#541);
#366=LINE('',#2113,#542);
#367=LINE('',#2114,#543);
#368=LINE('',#2117,#544);
#369=LINE('',#2118,#545);
#370=LINE('',#2121,#546);
#371=LINE('',#2122,#547);
#372=LINE('',#2124,#548);
#373=LINE('',#2126,#549);
#374=LINE('',#2129,#550);
#375=LINE('',#2131,#551);
#376=LINE('',#2132,#552);
#377=LINE('',#2135,#553);
#378=LINE('',#2136,#554);
#379=LINE('',#2139,#555);
#380=LINE('',#2140,#556);
#381=LINE('',#2142,#557);
#382=LINE('',#2145,#558);
#383=LINE('',#2147,#559);
#384=LINE('',#2148,#560);
#385=LINE('',#2151,#561);
#386=LINE('',#2152,#562);
#387=LINE('',#2155,#563);
#388=LINE('',#2156,#564);
#389=LINE('',#2158,#565);
#390=LINE('',#2161,#566);
#391=LINE('',#2163,#567);
#392=LINE('',#2164,#568);
#393=LINE('',#2168,#569);
#394=LINE('',#2171,#570);
#395=LINE('',#2172,#571);
#396=LINE('',#2177,#572);
#397=LINE('',#2179,#573);
#398=LINE('',#2180,#574);
#399=LINE('',#2186,#575);
#400=LINE('',#2190,#576);
#401=LINE('',#2192,#577);
#402=LINE('',#2198,#578);
#403=LINE('',#2202,#579);
#404=LINE('',#2204,#580);
#405=LINE('',#2206,#581);
#406=LINE('',#2207,#582);
#407=LINE('',#2210,#583);
#408=LINE('',#2212,#584);
#409=LINE('',#2216,#585);
#410=LINE('',#2217,#586);
#411=LINE('',#2219,#587);
#412=LINE('',#2220,#588);
#413=LINE('',#2223,#589);
#414=LINE('',#2224,#590);
#415=LINE('',#2227,#591);
#416=LINE('',#2228,#592);
#417=LINE('',#2230,#593);
#418=LINE('',#2233,#594);
#419=LINE('',#2234,#595);
#420=LINE('',#2236,#596);
#421=LINE('',#2237,#597);
#422=LINE('',#2240,#598);
#423=LINE('',#2241,#599);
#424=LINE('',#2244,#600);
#425=LINE('',#2245,#601);
#426=LINE('',#2247,#602);
#427=LINE('',#2253,#603);
#428=LINE('',#2254,#604);
#429=LINE('',#2257,#605);
#430=LINE('',#2258,#606);
#431=LINE('',#2260,#607);
#432=LINE('',#2263,#608);
#433=VECTOR('',#1517,1.);
#434=VECTOR('',#1520,1.);
#435=VECTOR('',#1523,1.);
#436=VECTOR('',#1524,1.);
#437=VECTOR('',#1527,1.);
#438=VECTOR('',#1528,1.);
#439=VECTOR('',#1529,1.);
#440=VECTOR('',#1530,1.);
#441=VECTOR('',#1533,1.);
#442=VECTOR('',#1534,1.);
#443=VECTOR('',#1541,1.);
#444=VECTOR('',#1542,1.);
#445=VECTOR('',#1545,1.);
#446=VECTOR('',#1546,1.);
#447=VECTOR('',#1551,1.);
#448=VECTOR('',#1552,1.);
#449=VECTOR('',#1555,1.);
#450=VECTOR('',#1556,1.);
#451=VECTOR('',#1557,1.);
#452=VECTOR('',#1558,1.);
#453=VECTOR('',#1559,1.);
#454=VECTOR('',#1560,1.);
#455=VECTOR('',#1567,1.);
#456=VECTOR('',#1568,1.);
#457=VECTOR('',#1569,1.);
#458=VECTOR('',#1570,1.);
#459=VECTOR('',#1571,1.);
#460=VECTOR('',#1572,1.);
#461=VECTOR('',#1573,1.);
#462=VECTOR('',#1574,1.);
#463=VECTOR('',#1575,1.);
#464=VECTOR('',#1576,1.);
#465=VECTOR('',#1577,1.);
#466=VECTOR('',#1578,1.);
#467=VECTOR('',#1579,1.);
#468=VECTOR('',#1582,1.);
#469=VECTOR('',#1583,1.);
#470=VECTOR('',#1586,1.);
#471=VECTOR('',#1587,1.);
#472=VECTOR('',#1588,1.);
#473=VECTOR('',#1591,1.);
#474=VECTOR('',#1594,1.);
#475=VECTOR('',#1595,1.);
#476=VECTOR('',#1596,1.);
#477=VECTOR('',#1599,1.);
#478=VECTOR('',#1600,1.);
#479=VECTOR('',#1601,1.);
#480=VECTOR('',#1602,1.);
#481=VECTOR('',#1603,1.);
#482=VECTOR('',#1604,1.);
#483=VECTOR('',#1605,1.);
#484=VECTOR('',#1606,1.);
#485=VECTOR('',#1607,1.);
#486=VECTOR('',#1608,1.);
#487=VECTOR('',#1609,1.);
#488=VECTOR('',#1610,1.);
#489=VECTOR('',#1611,1.);
#490=VECTOR('',#1612,1.);
#491=VECTOR('',#1613,1.);
#492=VECTOR('',#1614,1.);
#493=VECTOR('',#1615,1.);
#494=VECTOR('',#1616,1.);
#495=VECTOR('',#1617,1.);
#496=VECTOR('',#1618,1.);
#497=VECTOR('',#1619,1.);
#498=VECTOR('',#1620,1.);
#499=VECTOR('',#1621,1.);
#500=VECTOR('',#1622,1.);
#501=VECTOR('',#1623,1.);
#502=VECTOR('',#1624,1.);
#503=VECTOR('',#1625,1.);
#504=VECTOR('',#1628,1.);
#505=VECTOR('',#1629,1.);
#506=VECTOR('',#1632,1.);
#507=VECTOR('',#1633,1.);
#508=VECTOR('',#1634,1.);
#509=VECTOR('',#1635,1.);
#510=VECTOR('',#1638,1.);
#511=VECTOR('',#1639,1.);
#512=VECTOR('',#1640,1.);
#513=VECTOR('',#1643,1.);
#514=VECTOR('',#1644,1.);
#515=VECTOR('',#1647,1.);
#516=VECTOR('',#1648,1.);
#517=VECTOR('',#1651,1.);
#518=VECTOR('',#1652,1.);
#519=VECTOR('',#1655,1.);
#520=VECTOR('',#1658,1.);
#521=VECTOR('',#1667,1.);
#522=VECTOR('',#1668,1.);
#523=VECTOR('',#1669,1.);
#524=VECTOR('',#1672,1.);
#525=VECTOR('',#1673,1.);
#526=VECTOR('',#1676,1.);
#527=VECTOR('',#1677,1.);
#528=VECTOR('',#1680,1.);
#529=VECTOR('',#1681,1.);
#530=VECTOR('',#1684,1.);
#531=VECTOR('',#1685,1.);
#532=VECTOR('',#1688,1.);
#533=VECTOR('',#1689,1.);
#534=VECTOR('',#1692,1.);
#535=VECTOR('',#1693,1.);
#536=VECTOR('',#1696,1.);
#537=VECTOR('',#1697,1.);
#538=VECTOR('',#1700,1.);
#539=VECTOR('',#1701,1.);
#540=VECTOR('',#1704,1.);
#541=VECTOR('',#1705,1.);
#542=VECTOR('',#1708,1.);
#543=VECTOR('',#1709,1.);
#544=VECTOR('',#1712,1.);
#545=VECTOR('',#1713,1.);
#546=VECTOR('',#1716,1.);
#547=VECTOR('',#1717,1.);
#548=VECTOR('',#1720,1.);
#549=VECTOR('',#1723,1.);
#550=VECTOR('',#1726,1.);
#551=VECTOR('',#1727,1.);
#552=VECTOR('',#1728,1.);
#553=VECTOR('',#1731,1.);
#554=VECTOR('',#1732,1.);
#555=VECTOR('',#1735,1.);
#556=VECTOR('',#1736,1.);
#557=VECTOR('',#1739,1.);
#558=VECTOR('',#1742,1.);
#559=VECTOR('',#1743,1.);
#560=VECTOR('',#1744,1.);
#561=VECTOR('',#1747,1.);
#562=VECTOR('',#1748,1.);
#563=VECTOR('',#1751,1.);
#564=VECTOR('',#1752,1.);
#565=VECTOR('',#1755,1.);
#566=VECTOR('',#1758,1.);
#567=VECTOR('',#1759,1.);
#568=VECTOR('',#1760,1.);
#569=VECTOR('',#1765,1.);
#570=VECTOR('',#1768,1.);
#571=VECTOR('',#1769,1.);
#572=VECTOR('',#1776,1.);
#573=VECTOR('',#1777,1.);
#574=VECTOR('',#1778,1.);
#575=VECTOR('',#1783,1.);
#576=VECTOR('',#1786,1.);
#577=VECTOR('',#1789,2.);
#578=VECTOR('',#1794,1.);
#579=VECTOR('',#1797,1.);
#580=VECTOR('',#1800,2.);
#581=VECTOR('',#1803,1.);
#582=VECTOR('',#1804,1.);
#583=VECTOR('',#1809,1.);
#584=VECTOR('',#1812,1.);
#585=VECTOR('',#1817,1.);
#586=VECTOR('',#1818,1.);
#587=VECTOR('',#1819,1.);
#588=VECTOR('',#1820,1.);
#589=VECTOR('',#1823,1.);
#590=VECTOR('',#1824,1.);
#591=VECTOR('',#1827,1.);
#592=VECTOR('',#1828,1.);
#593=VECTOR('',#1831,1.);
#594=VECTOR('',#1834,1.);
#595=VECTOR('',#1835,1.);
#596=VECTOR('',#1836,1.);
#597=VECTOR('',#1837,1.);
#598=VECTOR('',#1840,1.);
#599=VECTOR('',#1841,1.);
#600=VECTOR('',#1844,1.);
#601=VECTOR('',#1845,1.);
#602=VECTOR('',#1848,1.);
#603=VECTOR('',#1857,1.);
#604=VECTOR('',#1858,1.);
#605=VECTOR('',#1861,1.);
#606=VECTOR('',#1862,1.);
#607=VECTOR('',#1865,1.);
#608=VECTOR('',#1870,1.);
#609=CIRCLE('',#1415,2.5);
#610=CIRCLE('',#1416,2.5);
#611=CIRCLE('',#1421,2.5);
#612=CIRCLE('',#1424,2.5);
#613=CIRCLE('',#1444,2.);
#614=CIRCLE('',#1445,2.);
#615=CIRCLE('',#1471,2.5);
#616=CIRCLE('',#1474,2.5);
#617=CIRCLE('',#1477,2.);
#618=CIRCLE('',#1478,2.);
#619=CIRCLE('',#1479,2.);
#620=CIRCLE('',#1481,2.);
#621=CIRCLE('',#1482,2.);
#622=CIRCLE('',#1483,2.);
#623=CIRCLE('',#1498,2.5);
#624=CIRCLE('',#1499,2.5);
#625=VERTEX_POINT('',#1882);
#626=VERTEX_POINT('',#1883);
#627=VERTEX_POINT('',#1885);
#628=VERTEX_POINT('',#1887);
#629=VERTEX_POINT('',#1891);
#630=VERTEX_POINT('',#1895);
#631=VERTEX_POINT('',#1897);
#632=VERTEX_POINT('',#1899);
#633=VERTEX_POINT('',#1903);
#634=VERTEX_POINT('',#1909);
#635=VERTEX_POINT('',#1913);
#636=VERTEX_POINT('',#1918);
#637=VERTEX_POINT('',#1922);
#638=VERTEX_POINT('',#1924);
#639=VERTEX_POINT('',#1926);
#640=VERTEX_POINT('',#1928);
#641=VERTEX_POINT('',#1935);
#642=VERTEX_POINT('',#1936);
#643=VERTEX_POINT('',#1938);
#644=VERTEX_POINT('',#1940);
#645=VERTEX_POINT('',#1942);
#646=VERTEX_POINT('',#1944);
#647=VERTEX_POINT('',#1946);
#648=VERTEX_POINT('',#1948);
#649=VERTEX_POINT('',#1950);
#650=VERTEX_POINT('',#1952);
#651=VERTEX_POINT('',#1955);
#652=VERTEX_POINT('',#1957);
#653=VERTEX_POINT('',#1961);
#654=VERTEX_POINT('',#1965);
#655=VERTEX_POINT('',#1967);
#656=VERTEX_POINT('',#1973);
#657=VERTEX_POINT('',#1975);
#658=VERTEX_POINT('',#1979);
#659=VERTEX_POINT('',#1980);
#660=VERTEX_POINT('',#1982);
#661=VERTEX_POINT('',#1985);
#662=VERTEX_POINT('',#1988);
#663=VERTEX_POINT('',#1990);
#664=VERTEX_POINT('',#1992);
#665=VERTEX_POINT('',#1994);
#666=VERTEX_POINT('',#1996);
#667=VERTEX_POINT('',#1998);
#668=VERTEX_POINT('',#2000);
#669=VERTEX_POINT('',#2002);
#670=VERTEX_POINT('',#2004);
#671=VERTEX_POINT('',#2006);
#672=VERTEX_POINT('',#2008);
#673=VERTEX_POINT('',#2010);
#674=VERTEX_POINT('',#2012);
#675=VERTEX_POINT('',#2015);
#676=VERTEX_POINT('',#2016);
#677=VERTEX_POINT('',#2018);
#678=VERTEX_POINT('',#2020);
#679=VERTEX_POINT('',#2023);
#680=VERTEX_POINT('',#2024);
#681=VERTEX_POINT('',#2026);
#682=VERTEX_POINT('',#2028);
#683=VERTEX_POINT('',#2032);
#684=VERTEX_POINT('',#2036);
#685=VERTEX_POINT('',#2038);
#686=VERTEX_POINT('',#2043);
#687=VERTEX_POINT('',#2045);
#688=VERTEX_POINT('',#2049);
#689=VERTEX_POINT('',#2053);
#690=VERTEX_POINT('',#2057);
#691=VERTEX_POINT('',#2065);
#692=VERTEX_POINT('',#2067);
#693=VERTEX_POINT('',#2070);
#694=VERTEX_POINT('',#2072);
#695=VERTEX_POINT('',#2076);
#696=VERTEX_POINT('',#2080);
#697=VERTEX_POINT('',#2084);
#698=VERTEX_POINT('',#2088);
#699=VERTEX_POINT('',#2092);
#700=VERTEX_POINT('',#2096);
#701=VERTEX_POINT('',#2100);
#702=VERTEX_POINT('',#2104);
#703=VERTEX_POINT('',#2108);
#704=VERTEX_POINT('',#2112);
#705=VERTEX_POINT('',#2116);
#706=VERTEX_POINT('',#2120);
#707=VERTEX_POINT('',#2128);
#708=VERTEX_POINT('',#2130);
#709=VERTEX_POINT('',#2134);
#710=VERTEX_POINT('',#2138);
#711=VERTEX_POINT('',#2144);
#712=VERTEX_POINT('',#2146);
#713=VERTEX_POINT('',#2150);
#714=VERTEX_POINT('',#2154);
#715=VERTEX_POINT('',#2160);
#716=VERTEX_POINT('',#2162);
#717=VERTEX_POINT('',#2166);
#718=VERTEX_POINT('',#2170);
#719=VERTEX_POINT('',#2176);
#720=VERTEX_POINT('',#2178);
#721=VERTEX_POINT('',#2182);
#722=VERTEX_POINT('',#2183);
#723=VERTEX_POINT('',#2185);
#724=VERTEX_POINT('',#2187);
#725=VERTEX_POINT('',#2189);
#726=VERTEX_POINT('',#2194);
#727=VERTEX_POINT('',#2195);
#728=VERTEX_POINT('',#2197);
#729=VERTEX_POINT('',#2199);
#730=VERTEX_POINT('',#2201);
#731=VERTEX_POINT('',#2215);
#732=VERTEX_POINT('',#2218);
#733=VERTEX_POINT('',#2222);
#734=VERTEX_POINT('',#2226);
#735=VERTEX_POINT('',#2232);
#736=VERTEX_POINT('',#2235);
#737=VERTEX_POINT('',#2239);
#738=VERTEX_POINT('',#2243);
#739=VERTEX_POINT('',#2252);
#740=VERTEX_POINT('',#2256);
#741=EDGE_CURVE('',#625,#626,#609,.T.);
#742=EDGE_CURVE('',#627,#626,#257,.T.);
#743=EDGE_CURVE('',#628,#627,#610,.T.);
#744=EDGE_CURVE('',#625,#628,#258,.T.);
#745=EDGE_CURVE('',#625,#629,#259,.T.);
#746=EDGE_CURVE('',#626,#629,#260,.T.);
#747=EDGE_CURVE('',#630,#626,#261,.T.);
#748=EDGE_CURVE('',#630,#631,#262,.T.);
#749=EDGE_CURVE('',#631,#632,#263,.T.);
#750=EDGE_CURVE('',#632,#627,#264,.T.);
#751=EDGE_CURVE('',#628,#633,#265,.T.);
#752=EDGE_CURVE('',#627,#633,#266,.T.);
#753=EDGE_CURVE('',#626,#625,#611,.T.);
#754=EDGE_CURVE('',#634,#625,#267,.T.);
#755=EDGE_CURVE('',#634,#630,#268,.T.);
#756=EDGE_CURVE('',#635,#632,#269,.T.);
#757=EDGE_CURVE('',#635,#628,#270,.T.);
#758=EDGE_CURVE('',#627,#628,#612,.T.);
#759=EDGE_CURVE('',#636,#635,#271,.T.);
#760=EDGE_CURVE('',#636,#631,#272,.T.);
#761=EDGE_CURVE('',#637,#636,#273,.T.);
#762=EDGE_CURVE('',#638,#637,#274,.T.);
#763=EDGE_CURVE('',#638,#639,#275,.T.);
#764=EDGE_CURVE('',#639,#640,#276,.T.);
#765=EDGE_CURVE('',#631,#640,#277,.T.);
#766=EDGE_CURVE('',#634,#636,#278,.T.);
#767=EDGE_CURVE('',#641,#642,#279,.T.);
#768=EDGE_CURVE('',#641,#643,#280,.T.);
#769=EDGE_CURVE('',#643,#644,#281,.T.);
#770=EDGE_CURVE('',#644,#645,#282,.T.);
#771=EDGE_CURVE('',#646,#645,#283,.T.);
#772=EDGE_CURVE('',#647,#646,#284,.T.);
#773=EDGE_CURVE('',#648,#647,#285,.T.);
#774=EDGE_CURVE('',#649,#648,#286,.T.);
#775=EDGE_CURVE('',#650,#649,#287,.T.);
#776=EDGE_CURVE('',#650,#637,#288,.T.);
#777=EDGE_CURVE('',#640,#651,#289,.T.);
#778=EDGE_CURVE('',#651,#652,#290,.T.);
#779=EDGE_CURVE('',#652,#642,#291,.T.);
#780=EDGE_CURVE('',#639,#653,#292,.T.);
#781=EDGE_CURVE('',#653,#651,#293,.T.);
#782=EDGE_CURVE('',#638,#654,#294,.T.);
#783=EDGE_CURVE('',#654,#655,#295,.T.);
#784=EDGE_CURVE('',#639,#655,#296,.T.);
#785=EDGE_CURVE('',#654,#650,#297,.T.);
#786=EDGE_CURVE('',#656,#642,#298,.T.);
#787=EDGE_CURVE('',#657,#656,#299,.T.);
#788=EDGE_CURVE('',#657,#641,#300,.T.);
#789=EDGE_CURVE('',#658,#659,#301,.T.);
#790=EDGE_CURVE('',#658,#660,#302,.T.);
#791=EDGE_CURVE('',#660,#645,#303,.T.);
#792=EDGE_CURVE('',#661,#644,#304,.T.);
#793=EDGE_CURVE('',#661,#656,#305,.T.);
#794=EDGE_CURVE('',#662,#652,#306,.T.);
#795=EDGE_CURVE('',#662,#663,#307,.T.);
#796=EDGE_CURVE('',#664,#663,#308,.T.);
#797=EDGE_CURVE('',#665,#664,#309,.T.);
#798=EDGE_CURVE('',#666,#665,#310,.T.);
#799=EDGE_CURVE('',#666,#667,#311,.T.);
#800=EDGE_CURVE('',#667,#668,#312,.T.);
#801=EDGE_CURVE('',#668,#669,#313,.T.);
#802=EDGE_CURVE('',#670,#669,#314,.T.);
#803=EDGE_CURVE('',#671,#670,#315,.T.);
#804=EDGE_CURVE('',#671,#672,#316,.T.);
#805=EDGE_CURVE('',#672,#673,#317,.T.);
#806=EDGE_CURVE('',#673,#674,#318,.T.);
#807=EDGE_CURVE('',#659,#674,#319,.T.);
#808=EDGE_CURVE('',#675,#676,#320,.T.);
#809=EDGE_CURVE('',#675,#677,#321,.T.);
#810=EDGE_CURVE('',#677,#678,#322,.T.);
#811=EDGE_CURVE('',#676,#678,#323,.T.);
#812=EDGE_CURVE('',#679,#680,#324,.T.);
#813=EDGE_CURVE('',#679,#681,#325,.T.);
#814=EDGE_CURVE('',#681,#682,#326,.T.);
#815=EDGE_CURVE('',#680,#682,#327,.T.);
#816=EDGE_CURVE('',#683,#639,#328,.T.);
#817=EDGE_CURVE('',#683,#662,#329,.T.);
#818=EDGE_CURVE('',#684,#649,#330,.T.);
#819=EDGE_CURVE('',#684,#685,#331,.T.);
#820=EDGE_CURVE('',#685,#648,#332,.T.);
#821=EDGE_CURVE('',#655,#647,#333,.T.);
#822=EDGE_CURVE('',#649,#686,#334,.T.);
#823=EDGE_CURVE('',#648,#687,#335,.T.);
#824=EDGE_CURVE('',#686,#687,#336,.T.);
#825=EDGE_CURVE('',#688,#646,#337,.T.);
#826=EDGE_CURVE('',#655,#688,#338,.T.);
#827=EDGE_CURVE('',#689,#655,#339,.T.);
#828=EDGE_CURVE('',#689,#660,#340,.T.);
#829=EDGE_CURVE('',#690,#643,#341,.T.);
#830=EDGE_CURVE('',#690,#661,#342,.T.);
#831=EDGE_CURVE('',#657,#690,#343,.T.);
#832=EDGE_CURVE('',#683,#689,#344,.T.);
#833=EDGE_CURVE('',#691,#691,#613,.T.);
#834=EDGE_CURVE('',#692,#692,#614,.T.);
#835=EDGE_CURVE('',#693,#658,#345,.T.);
#836=EDGE_CURVE('',#694,#659,#346,.T.);
#837=EDGE_CURVE('',#693,#694,#347,.T.);
#838=EDGE_CURVE('',#695,#674,#348,.T.);
#839=EDGE_CURVE('',#694,#695,#349,.T.);
#840=EDGE_CURVE('',#696,#695,#350,.T.);
#841=EDGE_CURVE('',#696,#673,#351,.T.);
#842=EDGE_CURVE('',#697,#672,#352,.T.);
#843=EDGE_CURVE('',#697,#696,#353,.T.);
#844=EDGE_CURVE('',#698,#671,#354,.T.);
#845=EDGE_CURVE('',#698,#697,#355,.T.);
#846=EDGE_CURVE('',#698,#699,#356,.T.);
#847=EDGE_CURVE('',#699,#670,#357,.T.);
#848=EDGE_CURVE('',#700,#669,#358,.T.);
#849=EDGE_CURVE('',#700,#699,#359,.T.);
#850=EDGE_CURVE('',#701,#700,#360,.T.);
#851=EDGE_CURVE('',#701,#668,#361,.T.);
#852=EDGE_CURVE('',#702,#667,#362,.T.);
#853=EDGE_CURVE('',#702,#701,#363,.T.);
#854=EDGE_CURVE('',#703,#666,#364,.T.);
#855=EDGE_CURVE('',#703,#702,#365,.T.);
#856=EDGE_CURVE('',#703,#704,#366,.T.);
#857=EDGE_CURVE('',#704,#665,#367,.T.);
#858=EDGE_CURVE('',#705,#664,#368,.T.);
#859=EDGE_CURVE('',#704,#705,#369,.T.);
#860=EDGE_CURVE('',#706,#663,#370,.T.);
#861=EDGE_CURVE('',#705,#706,#371,.T.);
#862=EDGE_CURVE('',#706,#683,#372,.T.);
#863=EDGE_CURVE('',#689,#693,#373,.T.);
#864=EDGE_CURVE('',#707,#676,#374,.T.);
#865=EDGE_CURVE('',#707,#708,#375,.T.);
#866=EDGE_CURVE('',#708,#675,#376,.T.);
#867=EDGE_CURVE('',#709,#678,#377,.T.);
#868=EDGE_CURVE('',#707,#709,#378,.T.);
#869=EDGE_CURVE('',#710,#677,#379,.T.);
#870=EDGE_CURVE('',#709,#710,#380,.T.);
#871=EDGE_CURVE('',#708,#710,#381,.T.);
#872=EDGE_CURVE('',#711,#680,#382,.T.);
#873=EDGE_CURVE('',#711,#712,#383,.T.);
#874=EDGE_CURVE('',#712,#679,#384,.T.);
#875=EDGE_CURVE('',#713,#682,#385,.T.);
#876=EDGE_CURVE('',#711,#713,#386,.T.);
#877=EDGE_CURVE('',#714,#681,#387,.T.);
#878=EDGE_CURVE('',#713,#714,#388,.T.);
#879=EDGE_CURVE('',#712,#714,#389,.T.);
#880=EDGE_CURVE('',#715,#684,#390,.T.);
#881=EDGE_CURVE('',#716,#686,#391,.T.);
#882=EDGE_CURVE('',#715,#716,#392,.T.);
#883=EDGE_CURVE('',#715,#717,#615,.T.);
#884=EDGE_CURVE('',#717,#685,#393,.T.);
#885=EDGE_CURVE('',#718,#717,#394,.T.);
#886=EDGE_CURVE('',#718,#687,#395,.T.);
#887=EDGE_CURVE('',#716,#718,#616,.T.);
#888=EDGE_CURVE('',#719,#689,#396,.T.);
#889=EDGE_CURVE('',#720,#719,#397,.T.);
#890=EDGE_CURVE('',#720,#683,#398,.T.);
#891=EDGE_CURVE('',#721,#722,#617,.T.);
#892=EDGE_CURVE('',#723,#721,#399,.T.);
#893=EDGE_CURVE('',#723,#724,#618,.T.);
#894=EDGE_CURVE('',#724,#725,#400,.T.);
#895=EDGE_CURVE('',#722,#725,#619,.T.);
#896=EDGE_CURVE('',#722,#691,#401,.T.);
#897=EDGE_CURVE('',#726,#727,#620,.T.);
#898=EDGE_CURVE('',#728,#726,#402,.T.);
#899=EDGE_CURVE('',#728,#729,#621,.T.);
#900=EDGE_CURVE('',#729,#730,#403,.T.);
#901=EDGE_CURVE('',#727,#730,#622,.T.);
#902=EDGE_CURVE('',#727,#692,#404,.T.);
#903=EDGE_CURVE('',#699,#693,#405,.T.);
#904=EDGE_CURVE('',#697,#694,#406,.T.);
#905=EDGE_CURVE('',#700,#706,#407,.T.);
#906=EDGE_CURVE('',#702,#705,#408,.T.);
#907=EDGE_CURVE('',#731,#707,#409,.T.);
#908=EDGE_CURVE('',#731,#721,#410,.T.);
#909=EDGE_CURVE('',#725,#732,#411,.T.);
#910=EDGE_CURVE('',#732,#708,#412,.T.);
#911=EDGE_CURVE('',#733,#709,#413,.T.);
#912=EDGE_CURVE('',#731,#733,#414,.T.);
#913=EDGE_CURVE('',#734,#710,#415,.T.);
#914=EDGE_CURVE('',#733,#734,#416,.T.);
#915=EDGE_CURVE('',#732,#734,#417,.T.);
#916=EDGE_CURVE('',#735,#711,#418,.T.);
#917=EDGE_CURVE('',#735,#726,#419,.T.);
#918=EDGE_CURVE('',#730,#736,#420,.T.);
#919=EDGE_CURVE('',#736,#712,#421,.T.);
#920=EDGE_CURVE('',#737,#713,#422,.T.);
#921=EDGE_CURVE('',#735,#737,#423,.T.);
#922=EDGE_CURVE('',#738,#714,#424,.T.);
#923=EDGE_CURVE('',#737,#738,#425,.T.);
#924=EDGE_CURVE('',#736,#738,#426,.T.);
#925=EDGE_CURVE('',#717,#715,#623,.T.);
#926=EDGE_CURVE('',#718,#716,#624,.T.);
#927=EDGE_CURVE('',#715,#739,#427,.T.);
#928=EDGE_CURVE('',#739,#717,#428,.T.);
#929=EDGE_CURVE('',#716,#740,#429,.T.);
#930=EDGE_CURVE('',#740,#718,#430,.T.);
#931=EDGE_CURVE('',#723,#724,#431,.T.);
#932=EDGE_CURVE('',#728,#729,#432,.T.);
#933=ORIENTED_EDGE('',*,*,#741,.T.);
#934=ORIENTED_EDGE('',*,*,#742,.F.);
#935=ORIENTED_EDGE('',*,*,#743,.F.);
#936=ORIENTED_EDGE('',*,*,#744,.F.);
#937=ORIENTED_EDGE('',*,*,#745,.T.);
#938=ORIENTED_EDGE('',*,*,#746,.F.);
#939=ORIENTED_EDGE('',*,*,#741,.F.);
#940=ORIENTED_EDGE('',*,*,#747,.F.);
#941=ORIENTED_EDGE('',*,*,#748,.T.);
#942=ORIENTED_EDGE('',*,*,#749,.T.);
#943=ORIENTED_EDGE('',*,*,#750,.T.);
#944=ORIENTED_EDGE('',*,*,#742,.T.);
#945=ORIENTED_EDGE('',*,*,#751,.F.);
#946=ORIENTED_EDGE('',*,*,#743,.T.);
#947=ORIENTED_EDGE('',*,*,#752,.T.);
#948=ORIENTED_EDGE('',*,*,#753,.F.);
#949=ORIENTED_EDGE('',*,*,#746,.T.);
#950=ORIENTED_EDGE('',*,*,#745,.F.);
#951=ORIENTED_EDGE('',*,*,#747,.T.);
#952=ORIENTED_EDGE('',*,*,#753,.T.);
#953=ORIENTED_EDGE('',*,*,#754,.F.);
#954=ORIENTED_EDGE('',*,*,#755,.T.);
#955=ORIENTED_EDGE('',*,*,#750,.F.);
#956=ORIENTED_EDGE('',*,*,#756,.F.);
#957=ORIENTED_EDGE('',*,*,#757,.T.);
#958=ORIENTED_EDGE('',*,*,#758,.F.);
#959=ORIENTED_EDGE('',*,*,#759,.T.);
#960=ORIENTED_EDGE('',*,*,#756,.T.);
#961=ORIENTED_EDGE('',*,*,#749,.F.);
#962=ORIENTED_EDGE('',*,*,#760,.F.);
#963=ORIENTED_EDGE('',*,*,#761,.F.);
#964=ORIENTED_EDGE('',*,*,#762,.F.);
#965=ORIENTED_EDGE('',*,*,#763,.T.);
#966=ORIENTED_EDGE('',*,*,#764,.T.);
#967=ORIENTED_EDGE('',*,*,#765,.F.);
#968=ORIENTED_EDGE('',*,*,#748,.F.);
#969=ORIENTED_EDGE('',*,*,#755,.F.);
#970=ORIENTED_EDGE('',*,*,#766,.T.);
#971=ORIENTED_EDGE('',*,*,#758,.T.);
#972=ORIENTED_EDGE('',*,*,#751,.T.);
#973=ORIENTED_EDGE('',*,*,#752,.F.);
#974=ORIENTED_EDGE('',*,*,#754,.T.);
#975=ORIENTED_EDGE('',*,*,#744,.T.);
#976=ORIENTED_EDGE('',*,*,#757,.F.);
#977=ORIENTED_EDGE('',*,*,#759,.F.);
#978=ORIENTED_EDGE('',*,*,#766,.F.);
#979=ORIENTED_EDGE('',*,*,#767,.F.);
#980=ORIENTED_EDGE('',*,*,#768,.T.);
#981=ORIENTED_EDGE('',*,*,#769,.T.);
#982=ORIENTED_EDGE('',*,*,#770,.T.);
#983=ORIENTED_EDGE('',*,*,#771,.F.);
#984=ORIENTED_EDGE('',*,*,#772,.F.);
#985=ORIENTED_EDGE('',*,*,#773,.F.);
#986=ORIENTED_EDGE('',*,*,#774,.F.);
#987=ORIENTED_EDGE('',*,*,#775,.F.);
#988=ORIENTED_EDGE('',*,*,#776,.T.);
#989=ORIENTED_EDGE('',*,*,#761,.T.);
#990=ORIENTED_EDGE('',*,*,#760,.T.);
#991=ORIENTED_EDGE('',*,*,#765,.T.);
#992=ORIENTED_EDGE('',*,*,#777,.T.);
#993=ORIENTED_EDGE('',*,*,#778,.T.);
#994=ORIENTED_EDGE('',*,*,#779,.T.);
#995=ORIENTED_EDGE('',*,*,#764,.F.);
#996=ORIENTED_EDGE('',*,*,#780,.T.);
#997=ORIENTED_EDGE('',*,*,#781,.T.);
#998=ORIENTED_EDGE('',*,*,#777,.F.);
#999=ORIENTED_EDGE('',*,*,#763,.F.);
#1000=ORIENTED_EDGE('',*,*,#782,.T.);
#1001=ORIENTED_EDGE('',*,*,#783,.T.);
#1002=ORIENTED_EDGE('',*,*,#784,.F.);
#1003=ORIENTED_EDGE('',*,*,#785,.F.);
#1004=ORIENTED_EDGE('',*,*,#782,.F.);
#1005=ORIENTED_EDGE('',*,*,#762,.T.);
#1006=ORIENTED_EDGE('',*,*,#776,.F.);
#1007=ORIENTED_EDGE('',*,*,#767,.T.);
#1008=ORIENTED_EDGE('',*,*,#786,.F.);
#1009=ORIENTED_EDGE('',*,*,#787,.F.);
#1010=ORIENTED_EDGE('',*,*,#788,.T.);
#1011=ORIENTED_EDGE('',*,*,#789,.F.);
#1012=ORIENTED_EDGE('',*,*,#790,.T.);
#1013=ORIENTED_EDGE('',*,*,#791,.T.);
#1014=ORIENTED_EDGE('',*,*,#770,.F.);
#1015=ORIENTED_EDGE('',*,*,#792,.F.);
#1016=ORIENTED_EDGE('',*,*,#793,.T.);
#1017=ORIENTED_EDGE('',*,*,#786,.T.);
#1018=ORIENTED_EDGE('',*,*,#779,.F.);
#1019=ORIENTED_EDGE('',*,*,#794,.F.);
#1020=ORIENTED_EDGE('',*,*,#795,.T.);
#1021=ORIENTED_EDGE('',*,*,#796,.F.);
#1022=ORIENTED_EDGE('',*,*,#797,.F.);
#1023=ORIENTED_EDGE('',*,*,#798,.F.);
#1024=ORIENTED_EDGE('',*,*,#799,.T.);
#1025=ORIENTED_EDGE('',*,*,#800,.T.);
#1026=ORIENTED_EDGE('',*,*,#801,.T.);
#1027=ORIENTED_EDGE('',*,*,#802,.F.);
#1028=ORIENTED_EDGE('',*,*,#803,.F.);
#1029=ORIENTED_EDGE('',*,*,#804,.T.);
#1030=ORIENTED_EDGE('',*,*,#805,.T.);
#1031=ORIENTED_EDGE('',*,*,#806,.T.);
#1032=ORIENTED_EDGE('',*,*,#807,.F.);
#1033=ORIENTED_EDGE('',*,*,#808,.F.);
#1034=ORIENTED_EDGE('',*,*,#809,.T.);
#1035=ORIENTED_EDGE('',*,*,#810,.T.);
#1036=ORIENTED_EDGE('',*,*,#811,.F.);
#1037=ORIENTED_EDGE('',*,*,#812,.F.);
#1038=ORIENTED_EDGE('',*,*,#813,.T.);
#1039=ORIENTED_EDGE('',*,*,#814,.T.);
#1040=ORIENTED_EDGE('',*,*,#815,.F.);
#1041=ORIENTED_EDGE('',*,*,#816,.F.);
#1042=ORIENTED_EDGE('',*,*,#817,.T.);
#1043=ORIENTED_EDGE('',*,*,#794,.T.);
#1044=ORIENTED_EDGE('',*,*,#778,.F.);
#1045=ORIENTED_EDGE('',*,*,#781,.F.);
#1046=ORIENTED_EDGE('',*,*,#780,.F.);
#1047=ORIENTED_EDGE('',*,*,#775,.T.);
#1048=ORIENTED_EDGE('',*,*,#818,.F.);
#1049=ORIENTED_EDGE('',*,*,#819,.T.);
#1050=ORIENTED_EDGE('',*,*,#820,.T.);
#1051=ORIENTED_EDGE('',*,*,#773,.T.);
#1052=ORIENTED_EDGE('',*,*,#821,.F.);
#1053=ORIENTED_EDGE('',*,*,#783,.F.);
#1054=ORIENTED_EDGE('',*,*,#785,.T.);
#1055=ORIENTED_EDGE('',*,*,#822,.F.);
#1056=ORIENTED_EDGE('',*,*,#774,.T.);
#1057=ORIENTED_EDGE('',*,*,#823,.T.);
#1058=ORIENTED_EDGE('',*,*,#824,.F.);
#1059=ORIENTED_EDGE('',*,*,#821,.T.);
#1060=ORIENTED_EDGE('',*,*,#772,.T.);
#1061=ORIENTED_EDGE('',*,*,#825,.F.);
#1062=ORIENTED_EDGE('',*,*,#826,.F.);
#1063=ORIENTED_EDGE('',*,*,#827,.T.);
#1064=ORIENTED_EDGE('',*,*,#826,.T.);
#1065=ORIENTED_EDGE('',*,*,#825,.T.);
#1066=ORIENTED_EDGE('',*,*,#771,.T.);
#1067=ORIENTED_EDGE('',*,*,#791,.F.);
#1068=ORIENTED_EDGE('',*,*,#828,.F.);
#1069=ORIENTED_EDGE('',*,*,#769,.F.);
#1070=ORIENTED_EDGE('',*,*,#829,.F.);
#1071=ORIENTED_EDGE('',*,*,#830,.T.);
#1072=ORIENTED_EDGE('',*,*,#792,.T.);
#1073=ORIENTED_EDGE('',*,*,#831,.T.);
#1074=ORIENTED_EDGE('',*,*,#829,.T.);
#1075=ORIENTED_EDGE('',*,*,#768,.F.);
#1076=ORIENTED_EDGE('',*,*,#788,.F.);
#1077=ORIENTED_EDGE('',*,*,#827,.F.);
#1078=ORIENTED_EDGE('',*,*,#832,.F.);
#1079=ORIENTED_EDGE('',*,*,#816,.T.);
#1080=ORIENTED_EDGE('',*,*,#784,.T.);
#1081=ORIENTED_EDGE('',*,*,#793,.F.);
#1082=ORIENTED_EDGE('',*,*,#830,.F.);
#1083=ORIENTED_EDGE('',*,*,#831,.F.);
#1084=ORIENTED_EDGE('',*,*,#787,.T.);
#1085=ORIENTED_EDGE('',*,*,#833,.F.);
#1086=ORIENTED_EDGE('',*,*,#834,.F.);
#1087=ORIENTED_EDGE('',*,*,#835,.T.);
#1088=ORIENTED_EDGE('',*,*,#789,.T.);
#1089=ORIENTED_EDGE('',*,*,#836,.F.);
#1090=ORIENTED_EDGE('',*,*,#837,.F.);
#1091=ORIENTED_EDGE('',*,*,#836,.T.);
#1092=ORIENTED_EDGE('',*,*,#807,.T.);
#1093=ORIENTED_EDGE('',*,*,#838,.F.);
#1094=ORIENTED_EDGE('',*,*,#839,.F.);
#1095=ORIENTED_EDGE('',*,*,#840,.T.);
#1096=ORIENTED_EDGE('',*,*,#838,.T.);
#1097=ORIENTED_EDGE('',*,*,#806,.F.);
#1098=ORIENTED_EDGE('',*,*,#841,.F.);
#1099=ORIENTED_EDGE('',*,*,#842,.F.);
#1100=ORIENTED_EDGE('',*,*,#843,.T.);
#1101=ORIENTED_EDGE('',*,*,#841,.T.);
#1102=ORIENTED_EDGE('',*,*,#805,.F.);
#1103=ORIENTED_EDGE('',*,*,#844,.F.);
#1104=ORIENTED_EDGE('',*,*,#845,.T.);
#1105=ORIENTED_EDGE('',*,*,#842,.T.);
#1106=ORIENTED_EDGE('',*,*,#804,.F.);
#1107=ORIENTED_EDGE('',*,*,#846,.F.);
#1108=ORIENTED_EDGE('',*,*,#844,.T.);
#1109=ORIENTED_EDGE('',*,*,#803,.T.);
#1110=ORIENTED_EDGE('',*,*,#847,.F.);
#1111=ORIENTED_EDGE('',*,*,#848,.F.);
#1112=ORIENTED_EDGE('',*,*,#849,.T.);
#1113=ORIENTED_EDGE('',*,*,#847,.T.);
#1114=ORIENTED_EDGE('',*,*,#802,.T.);
#1115=ORIENTED_EDGE('',*,*,#850,.T.);
#1116=ORIENTED_EDGE('',*,*,#848,.T.);
#1117=ORIENTED_EDGE('',*,*,#801,.F.);
#1118=ORIENTED_EDGE('',*,*,#851,.F.);
#1119=ORIENTED_EDGE('',*,*,#851,.T.);
#1120=ORIENTED_EDGE('',*,*,#800,.F.);
#1121=ORIENTED_EDGE('',*,*,#852,.F.);
#1122=ORIENTED_EDGE('',*,*,#853,.T.);
#1123=ORIENTED_EDGE('',*,*,#799,.F.);
#1124=ORIENTED_EDGE('',*,*,#854,.F.);
#1125=ORIENTED_EDGE('',*,*,#855,.T.);
#1126=ORIENTED_EDGE('',*,*,#852,.T.);
#1127=ORIENTED_EDGE('',*,*,#856,.F.);
#1128=ORIENTED_EDGE('',*,*,#854,.T.);
#1129=ORIENTED_EDGE('',*,*,#798,.T.);
#1130=ORIENTED_EDGE('',*,*,#857,.F.);
#1131=ORIENTED_EDGE('',*,*,#797,.T.);
#1132=ORIENTED_EDGE('',*,*,#858,.F.);
#1133=ORIENTED_EDGE('',*,*,#859,.F.);
#1134=ORIENTED_EDGE('',*,*,#857,.T.);
#1135=ORIENTED_EDGE('',*,*,#796,.T.);
#1136=ORIENTED_EDGE('',*,*,#860,.F.);
#1137=ORIENTED_EDGE('',*,*,#861,.F.);
#1138=ORIENTED_EDGE('',*,*,#858,.T.);
#1139=ORIENTED_EDGE('',*,*,#860,.T.);
#1140=ORIENTED_EDGE('',*,*,#795,.F.);
#1141=ORIENTED_EDGE('',*,*,#817,.F.);
#1142=ORIENTED_EDGE('',*,*,#862,.F.);
#1143=ORIENTED_EDGE('',*,*,#828,.T.);
#1144=ORIENTED_EDGE('',*,*,#790,.F.);
#1145=ORIENTED_EDGE('',*,*,#835,.F.);
#1146=ORIENTED_EDGE('',*,*,#863,.F.);
#1147=ORIENTED_EDGE('',*,*,#864,.F.);
#1148=ORIENTED_EDGE('',*,*,#865,.T.);
#1149=ORIENTED_EDGE('',*,*,#866,.T.);
#1150=ORIENTED_EDGE('',*,*,#808,.T.);
#1151=ORIENTED_EDGE('',*,*,#867,.F.);
#1152=ORIENTED_EDGE('',*,*,#868,.F.);
#1153=ORIENTED_EDGE('',*,*,#864,.T.);
#1154=ORIENTED_EDGE('',*,*,#811,.T.);
#1155=ORIENTED_EDGE('',*,*,#867,.T.);
#1156=ORIENTED_EDGE('',*,*,#810,.F.);
#1157=ORIENTED_EDGE('',*,*,#869,.F.);
#1158=ORIENTED_EDGE('',*,*,#870,.F.);
#1159=ORIENTED_EDGE('',*,*,#869,.T.);
#1160=ORIENTED_EDGE('',*,*,#809,.F.);
#1161=ORIENTED_EDGE('',*,*,#866,.F.);
#1162=ORIENTED_EDGE('',*,*,#871,.T.);
#1163=ORIENTED_EDGE('',*,*,#872,.F.);
#1164=ORIENTED_EDGE('',*,*,#873,.T.);
#1165=ORIENTED_EDGE('',*,*,#874,.T.);
#1166=ORIENTED_EDGE('',*,*,#812,.T.);
#1167=ORIENTED_EDGE('',*,*,#875,.F.);
#1168=ORIENTED_EDGE('',*,*,#876,.F.);
#1169=ORIENTED_EDGE('',*,*,#872,.T.);
#1170=ORIENTED_EDGE('',*,*,#815,.T.);
#1171=ORIENTED_EDGE('',*,*,#875,.T.);
#1172=ORIENTED_EDGE('',*,*,#814,.F.);
#1173=ORIENTED_EDGE('',*,*,#877,.F.);
#1174=ORIENTED_EDGE('',*,*,#878,.F.);
#1175=ORIENTED_EDGE('',*,*,#877,.T.);
#1176=ORIENTED_EDGE('',*,*,#813,.F.);
#1177=ORIENTED_EDGE('',*,*,#874,.F.);
#1178=ORIENTED_EDGE('',*,*,#879,.T.);
#1179=ORIENTED_EDGE('',*,*,#880,.T.);
#1180=ORIENTED_EDGE('',*,*,#818,.T.);
#1181=ORIENTED_EDGE('',*,*,#822,.T.);
#1182=ORIENTED_EDGE('',*,*,#881,.F.);
#1183=ORIENTED_EDGE('',*,*,#882,.F.);
#1184=ORIENTED_EDGE('',*,*,#883,.T.);
#1185=ORIENTED_EDGE('',*,*,#884,.T.);
#1186=ORIENTED_EDGE('',*,*,#819,.F.);
#1187=ORIENTED_EDGE('',*,*,#880,.F.);
#1188=ORIENTED_EDGE('',*,*,#884,.F.);
#1189=ORIENTED_EDGE('',*,*,#885,.F.);
#1190=ORIENTED_EDGE('',*,*,#886,.T.);
#1191=ORIENTED_EDGE('',*,*,#823,.F.);
#1192=ORIENTED_EDGE('',*,*,#820,.F.);
#1193=ORIENTED_EDGE('',*,*,#887,.F.);
#1194=ORIENTED_EDGE('',*,*,#881,.T.);
#1195=ORIENTED_EDGE('',*,*,#824,.T.);
#1196=ORIENTED_EDGE('',*,*,#886,.F.);
#1197=ORIENTED_EDGE('',*,*,#832,.T.);
#1198=ORIENTED_EDGE('',*,*,#888,.F.);
#1199=ORIENTED_EDGE('',*,*,#889,.F.);
#1200=ORIENTED_EDGE('',*,*,#890,.T.);
#1201=ORIENTED_EDGE('',*,*,#891,.F.);
#1202=ORIENTED_EDGE('',*,*,#892,.F.);
#1203=ORIENTED_EDGE('',*,*,#893,.T.);
#1204=ORIENTED_EDGE('',*,*,#894,.T.);
#1205=ORIENTED_EDGE('',*,*,#895,.F.);
#1206=ORIENTED_EDGE('',*,*,#896,.T.);
#1207=ORIENTED_EDGE('',*,*,#833,.T.);
#1208=ORIENTED_EDGE('',*,*,#896,.F.);
#1209=ORIENTED_EDGE('',*,*,#897,.F.);
#1210=ORIENTED_EDGE('',*,*,#898,.F.);
#1211=ORIENTED_EDGE('',*,*,#899,.T.);
#1212=ORIENTED_EDGE('',*,*,#900,.T.);
#1213=ORIENTED_EDGE('',*,*,#901,.F.);
#1214=ORIENTED_EDGE('',*,*,#902,.T.);
#1215=ORIENTED_EDGE('',*,*,#834,.T.);
#1216=ORIENTED_EDGE('',*,*,#902,.F.);
#1217=ORIENTED_EDGE('',*,*,#845,.F.);
#1218=ORIENTED_EDGE('',*,*,#846,.T.);
#1219=ORIENTED_EDGE('',*,*,#903,.T.);
#1220=ORIENTED_EDGE('',*,*,#837,.T.);
#1221=ORIENTED_EDGE('',*,*,#904,.F.);
#1222=ORIENTED_EDGE('',*,*,#843,.F.);
#1223=ORIENTED_EDGE('',*,*,#904,.T.);
#1224=ORIENTED_EDGE('',*,*,#839,.T.);
#1225=ORIENTED_EDGE('',*,*,#840,.F.);
#1226=ORIENTED_EDGE('',*,*,#903,.F.);
#1227=ORIENTED_EDGE('',*,*,#849,.F.);
#1228=ORIENTED_EDGE('',*,*,#905,.T.);
#1229=ORIENTED_EDGE('',*,*,#862,.T.);
#1230=ORIENTED_EDGE('',*,*,#890,.F.);
#1231=ORIENTED_EDGE('',*,*,#889,.T.);
#1232=ORIENTED_EDGE('',*,*,#888,.T.);
#1233=ORIENTED_EDGE('',*,*,#863,.T.);
#1234=ORIENTED_EDGE('',*,*,#853,.F.);
#1235=ORIENTED_EDGE('',*,*,#906,.T.);
#1236=ORIENTED_EDGE('',*,*,#861,.T.);
#1237=ORIENTED_EDGE('',*,*,#905,.F.);
#1238=ORIENTED_EDGE('',*,*,#850,.F.);
#1239=ORIENTED_EDGE('',*,*,#855,.F.);
#1240=ORIENTED_EDGE('',*,*,#856,.T.);
#1241=ORIENTED_EDGE('',*,*,#859,.T.);
#1242=ORIENTED_EDGE('',*,*,#906,.F.);
#1243=ORIENTED_EDGE('',*,*,#907,.F.);
#1244=ORIENTED_EDGE('',*,*,#908,.T.);
#1245=ORIENTED_EDGE('',*,*,#891,.T.);
#1246=ORIENTED_EDGE('',*,*,#895,.T.);
#1247=ORIENTED_EDGE('',*,*,#909,.T.);
#1248=ORIENTED_EDGE('',*,*,#910,.T.);
#1249=ORIENTED_EDGE('',*,*,#865,.F.);
#1250=ORIENTED_EDGE('',*,*,#911,.F.);
#1251=ORIENTED_EDGE('',*,*,#912,.F.);
#1252=ORIENTED_EDGE('',*,*,#907,.T.);
#1253=ORIENTED_EDGE('',*,*,#868,.T.);
#1254=ORIENTED_EDGE('',*,*,#911,.T.);
#1255=ORIENTED_EDGE('',*,*,#870,.T.);
#1256=ORIENTED_EDGE('',*,*,#913,.F.);
#1257=ORIENTED_EDGE('',*,*,#914,.F.);
#1258=ORIENTED_EDGE('',*,*,#913,.T.);
#1259=ORIENTED_EDGE('',*,*,#871,.F.);
#1260=ORIENTED_EDGE('',*,*,#910,.F.);
#1261=ORIENTED_EDGE('',*,*,#915,.T.);
#1262=ORIENTED_EDGE('',*,*,#916,.F.);
#1263=ORIENTED_EDGE('',*,*,#917,.T.);
#1264=ORIENTED_EDGE('',*,*,#897,.T.);
#1265=ORIENTED_EDGE('',*,*,#901,.T.);
#1266=ORIENTED_EDGE('',*,*,#918,.T.);
#1267=ORIENTED_EDGE('',*,*,#919,.T.);
#1268=ORIENTED_EDGE('',*,*,#873,.F.);
#1269=ORIENTED_EDGE('',*,*,#920,.F.);
#1270=ORIENTED_EDGE('',*,*,#921,.F.);
#1271=ORIENTED_EDGE('',*,*,#916,.T.);
#1272=ORIENTED_EDGE('',*,*,#876,.T.);
#1273=ORIENTED_EDGE('',*,*,#920,.T.);
#1274=ORIENTED_EDGE('',*,*,#878,.T.);
#1275=ORIENTED_EDGE('',*,*,#922,.F.);
#1276=ORIENTED_EDGE('',*,*,#923,.F.);
#1277=ORIENTED_EDGE('',*,*,#922,.T.);
#1278=ORIENTED_EDGE('',*,*,#879,.F.);
#1279=ORIENTED_EDGE('',*,*,#919,.F.);
#1280=ORIENTED_EDGE('',*,*,#924,.T.);
#1281=ORIENTED_EDGE('',*,*,#925,.T.);
#1282=ORIENTED_EDGE('',*,*,#882,.T.);
#1283=ORIENTED_EDGE('',*,*,#926,.F.);
#1284=ORIENTED_EDGE('',*,*,#885,.T.);
#1285=ORIENTED_EDGE('',*,*,#927,.T.);
#1286=ORIENTED_EDGE('',*,*,#928,.T.);
#1287=ORIENTED_EDGE('',*,*,#883,.F.);
#1288=ORIENTED_EDGE('',*,*,#929,.F.);
#1289=ORIENTED_EDGE('',*,*,#887,.T.);
#1290=ORIENTED_EDGE('',*,*,#930,.F.);
#1291=ORIENTED_EDGE('',*,*,#908,.F.);
#1292=ORIENTED_EDGE('',*,*,#912,.T.);
#1293=ORIENTED_EDGE('',*,*,#914,.T.);
#1294=ORIENTED_EDGE('',*,*,#915,.F.);
#1295=ORIENTED_EDGE('',*,*,#909,.F.);
#1296=ORIENTED_EDGE('',*,*,#894,.F.);
#1297=ORIENTED_EDGE('',*,*,#931,.F.);
#1298=ORIENTED_EDGE('',*,*,#892,.T.);
#1299=ORIENTED_EDGE('',*,*,#931,.T.);
#1300=ORIENTED_EDGE('',*,*,#893,.F.);
#1301=ORIENTED_EDGE('',*,*,#917,.F.);
#1302=ORIENTED_EDGE('',*,*,#921,.T.);
#1303=ORIENTED_EDGE('',*,*,#923,.T.);
#1304=ORIENTED_EDGE('',*,*,#924,.F.);
#1305=ORIENTED_EDGE('',*,*,#918,.F.);
#1306=ORIENTED_EDGE('',*,*,#900,.F.);
#1307=ORIENTED_EDGE('',*,*,#932,.F.);
#1308=ORIENTED_EDGE('',*,*,#898,.T.);
#1309=ORIENTED_EDGE('',*,*,#932,.T.);
#1310=ORIENTED_EDGE('',*,*,#899,.F.);
#1311=ORIENTED_EDGE('',*,*,#925,.F.);
#1312=ORIENTED_EDGE('',*,*,#928,.F.);
#1313=ORIENTED_EDGE('',*,*,#927,.F.);
#1314=ORIENTED_EDGE('',*,*,#926,.T.);
#1315=ORIENTED_EDGE('',*,*,#929,.T.);
#1316=ORIENTED_EDGE('',*,*,#930,.T.);
#1317=CYLINDRICAL_SURFACE('',#1414,2.5);
#1318=CYLINDRICAL_SURFACE('',#1476,2.);
#1319=CYLINDRICAL_SURFACE('',#1480,2.);
#1320=CYLINDRICAL_SURFACE('',#1497,2.5);
#1321=ADVANCED_FACE('',(#97),#1317,.T.);
#1322=ADVANCED_FACE('',(#98),#23,.F.);
#1323=ADVANCED_FACE('',(#99),#24,.T.);
#1324=ADVANCED_FACE('',(#100),#25,.T.);
#1325=ADVANCED_FACE('',(#101),#26,.F.);
#1326=ADVANCED_FACE('',(#102),#27,.F.);
#1327=ADVANCED_FACE('',(#103),#28,.T.);
#1328=ADVANCED_FACE('',(#104),#29,.F.);
#1329=ADVANCED_FACE('',(#105),#30,.T.);
#1330=ADVANCED_FACE('',(#106),#31,.T.);
#1331=ADVANCED_FACE('',(#107),#32,.F.);
#1332=ADVANCED_FACE('',(#108),#33,.T.);
#1333=ADVANCED_FACE('',(#109),#34,.T.);
#1334=ADVANCED_FACE('',(#110),#35,.T.);
#1335=ADVANCED_FACE('',(#111),#36,.T.);
#1336=ADVANCED_FACE('',(#112),#37,.F.);
#1337=ADVANCED_FACE('',(#113,#19,#20),#38,.T.);
#1338=ADVANCED_FACE('',(#114),#39,.T.);
#1339=ADVANCED_FACE('',(#115),#40,.F.);
#1340=ADVANCED_FACE('',(#116),#41,.T.);
#1341=ADVANCED_FACE('',(#117),#42,.F.);
#1342=ADVANCED_FACE('',(#118),#43,.F.);
#1343=ADVANCED_FACE('',(#119),#44,.T.);
#1344=ADVANCED_FACE('',(#120),#45,.F.);
#1345=ADVANCED_FACE('',(#121),#46,.T.);
#1346=ADVANCED_FACE('',(#122,#21,#22),#47,.F.);
#1347=ADVANCED_FACE('',(#123),#48,.F.);
#1348=ADVANCED_FACE('',(#124),#49,.F.);
#1349=ADVANCED_FACE('',(#125),#50,.F.);
#1350=ADVANCED_FACE('',(#126),#51,.T.);
#1351=ADVANCED_FACE('',(#127),#52,.T.);
#1352=ADVANCED_FACE('',(#128),#53,.T.);
#1353=ADVANCED_FACE('',(#129),#54,.T.);
#1354=ADVANCED_FACE('',(#130),#55,.F.);
#1355=ADVANCED_FACE('',(#131),#56,.T.);
#1356=ADVANCED_FACE('',(#132),#57,.T.);
#1357=ADVANCED_FACE('',(#133),#58,.T.);
#1358=ADVANCED_FACE('',(#134),#59,.F.);
#1359=ADVANCED_FACE('',(#135),#60,.F.);
#1360=ADVANCED_FACE('',(#136),#61,.F.);
#1361=ADVANCED_FACE('',(#137),#62,.F.);
#1362=ADVANCED_FACE('',(#138),#63,.T.);
#1363=ADVANCED_FACE('',(#139),#64,.T.);
#1364=ADVANCED_FACE('',(#140),#65,.F.);
#1365=ADVANCED_FACE('',(#141),#66,.F.);
#1366=ADVANCED_FACE('',(#142),#67,.T.);
#1367=ADVANCED_FACE('',(#143),#68,.T.);
#1368=ADVANCED_FACE('',(#144),#69,.F.);
#1369=ADVANCED_FACE('',(#145),#70,.F.);
#1370=ADVANCED_FACE('',(#146),#71,.F.);
#1371=ADVANCED_FACE('',(#147),#72,.F.);
#1372=ADVANCED_FACE('',(#148),#73,.T.);
#1373=ADVANCED_FACE('',(#149),#74,.T.);
#1374=ADVANCED_FACE('',(#150),#75,.T.);
#1375=ADVANCED_FACE('',(#151),#1318,.F.);
#1376=ADVANCED_FACE('',(#152),#1319,.F.);
#1377=ADVANCED_FACE('',(#153),#76,.T.);
#1378=ADVANCED_FACE('',(#154),#77,.T.);
#1379=ADVANCED_FACE('',(#155),#78,.T.);
#1380=ADVANCED_FACE('',(#156),#79,.T.);
#1381=ADVANCED_FACE('',(#157),#80,.T.);
#1382=ADVANCED_FACE('',(#158),#81,.T.);
#1383=ADVANCED_FACE('',(#159),#82,.T.);
#1384=ADVANCED_FACE('',(#160),#83,.F.);
#1385=ADVANCED_FACE('',(#161),#84,.F.);
#1386=ADVANCED_FACE('',(#162),#85,.T.);
#1387=ADVANCED_FACE('',(#163),#86,.T.);
#1388=ADVANCED_FACE('',(#164),#87,.F.);
#1389=ADVANCED_FACE('',(#165),#88,.F.);
#1390=ADVANCED_FACE('',(#166),#1320,.T.);
#1391=ADVANCED_FACE('',(#167),#89,.F.);
#1392=ADVANCED_FACE('',(#168),#90,.T.);
#1393=ADVANCED_FACE('',(#169),#91,.T.);
#1394=ADVANCED_FACE('',(#170),#92,.F.);
#1395=ADVANCED_FACE('',(#171),#93,.T.);
#1396=ADVANCED_FACE('',(#172),#94,.F.);
#1397=ADVANCED_FACE('',(#173),#95,.F.);
#1398=ADVANCED_FACE('',(#174),#96,.T.);
#1399=CLOSED_SHELL('',(#1321,#1322,#1323,#1324,#1325,#1326,#1327,#1328,
#1329,#1330,#1331,#1332,#1333,#1334,#1335,#1336,#1337,#1338,#1339,#1340,
#1341,#1342,#1343,#1344,#1345,#1346,#1347,#1348,#1349,#1350,#1351,#1352,
#1353,#1354,#1355,#1356,#1357,#1358,#1359,#1360,#1361,#1362,#1363,#1364,
#1365,#1366,#1367,#1368,#1369,#1370,#1371,#1372,#1373,#1374,#1375,#1376,
#1377,#1378,#1379,#1380,#1381,#1382,#1383,#1384,#1385,#1386,#1387,#1388,
#1389,#1390,#1391,#1392,#1393,#1394,#1395,#1396,#1397,#1398));
#1400=DERIVED_UNIT_ELEMENT(#1402,1.);
#1401=DERIVED_UNIT_ELEMENT(#2275,-3.);
#1402=(
MASS_UNIT()
NAMED_UNIT(*)
SI_UNIT(.KILO.,.GRAM.)
);
#1403=DERIVED_UNIT((#1400,#1401));
#1404=MEASURE_REPRESENTATION_ITEM('density measure',
POSITIVE_RATIO_MEASURE(7850.),#1403);
#1405=PROPERTY_DEFINITION_REPRESENTATION(#1410,#1407);
#1406=PROPERTY_DEFINITION_REPRESENTATION(#1411,#1408);
#1407=REPRESENTATION('material name',(#1409),#2272);
#1408=REPRESENTATION('density',(#1404),#2272);
#1409=DESCRIPTIVE_REPRESENTATION_ITEM('Stahl','Stahl');
#1410=PROPERTY_DEFINITION('material property','material name',#2287);
#1411=PROPERTY_DEFINITION('material property','density of part',#2287);
#1412=AXIS2_PLACEMENT_3D('',#1879,#1509,#1510);
#1413=AXIS2_PLACEMENT_3D('',#1880,#1511,#1512);
#1414=AXIS2_PLACEMENT_3D('',#1881,#1513,#1514);
#1415=AXIS2_PLACEMENT_3D('',#1884,#1515,#1516);
#1416=AXIS2_PLACEMENT_3D('',#1888,#1518,#1519);
#1417=AXIS2_PLACEMENT_3D('',#1890,#1521,#1522);
#1418=AXIS2_PLACEMENT_3D('',#1894,#1525,#1526);
#1419=AXIS2_PLACEMENT_3D('',#1902,#1531,#1532);
#1420=AXIS2_PLACEMENT_3D('',#1906,#1535,#1536);
#1421=AXIS2_PLACEMENT_3D('',#1907,#1537,#1538);
#1422=AXIS2_PLACEMENT_3D('',#1908,#1539,#1540);
#1423=AXIS2_PLACEMENT_3D('',#1912,#1543,#1544);
#1424=AXIS2_PLACEMENT_3D('',#1916,#1547,#1548);
#1425=AXIS2_PLACEMENT_3D('',#1917,#1549,#1550);
#1426=AXIS2_PLACEMENT_3D('',#1921,#1553,#1554);
#1427=AXIS2_PLACEMENT_3D('',#1932,#1561,#1562);
#1428=AXIS2_PLACEMENT_3D('',#1933,#1563,#1564);
#1429=AXIS2_PLACEMENT_3D('',#1934,#1565,#1566);
#1430=AXIS2_PLACEMENT_3D('',#1960,#1580,#1581);
#1431=AXIS2_PLACEMENT_3D('',#1964,#1584,#1585);
#1432=AXIS2_PLACEMENT_3D('',#1970,#1589,#1590);
#1433=AXIS2_PLACEMENT_3D('',#1972,#1592,#1593);
#1434=AXIS2_PLACEMENT_3D('',#1978,#1597,#1598);
#1435=AXIS2_PLACEMENT_3D('',#2031,#1626,#1627);
#1436=AXIS2_PLACEMENT_3D('',#2035,#1630,#1631);
#1437=AXIS2_PLACEMENT_3D('',#2042,#1636,#1637);
#1438=AXIS2_PLACEMENT_3D('',#2048,#1641,#1642);
#1439=AXIS2_PLACEMENT_3D('',#2052,#1645,#1646);
#1440=AXIS2_PLACEMENT_3D('',#2056,#1649,#1650);
#1441=AXIS2_PLACEMENT_3D('',#2060,#1653,#1654);
#1442=AXIS2_PLACEMENT_3D('',#2062,#1656,#1657);
#1443=AXIS2_PLACEMENT_3D('',#2064,#1659,#1660);
#1444=AXIS2_PLACEMENT_3D('',#2066,#1661,#1662);
#1445=AXIS2_PLACEMENT_3D('',#2068,#1663,#1664);
#1446=AXIS2_PLACEMENT_3D('',#2069,#1665,#1666);
#1447=AXIS2_PLACEMENT_3D('',#2075,#1670,#1671);
#1448=AXIS2_PLACEMENT_3D('',#2079,#1674,#1675);
#1449=AXIS2_PLACEMENT_3D('',#2083,#1678,#1679);
#1450=AXIS2_PLACEMENT_3D('',#2087,#1682,#1683);
#1451=AXIS2_PLACEMENT_3D('',#2091,#1686,#1687);
#1452=AXIS2_PLACEMENT_3D('',#2095,#1690,#1691);
#1453=AXIS2_PLACEMENT_3D('',#2099,#1694,#1695);
#1454=AXIS2_PLACEMENT_3D('',#2103,#1698,#1699);
#1455=AXIS2_PLACEMENT_3D('',#2107,#1702,#1703);
#1456=AXIS2_PLACEMENT_3D('',#2111,#1706,#1707);
#1457=AXIS2_PLACEMENT_3D('',#2115,#1710,#1711);
#1458=AXIS2_PLACEMENT_3D('',#2119,#1714,#1715);
#1459=AXIS2_PLACEMENT_3D('',#2123,#1718,#1719);
#1460=AXIS2_PLACEMENT_3D('',#2125,#1721,#1722);
#1461=AXIS2_PLACEMENT_3D('',#2127,#1724,#1725);
#1462=AXIS2_PLACEMENT_3D('',#2133,#1729,#1730);
#1463=AXIS2_PLACEMENT_3D('',#2137,#1733,#1734);
#1464=AXIS2_PLACEMENT_3D('',#2141,#1737,#1738);
#1465=AXIS2_PLACEMENT_3D('',#2143,#1740,#1741);
#1466=AXIS2_PLACEMENT_3D('',#2149,#1745,#1746);
#1467=AXIS2_PLACEMENT_3D('',#2153,#1749,#1750);
#1468=AXIS2_PLACEMENT_3D('',#2157,#1753,#1754);
#1469=AXIS2_PLACEMENT_3D('',#2159,#1756,#1757);
#1470=AXIS2_PLACEMENT_3D('',#2165,#1761,#1762);
#1471=AXIS2_PLACEMENT_3D('',#2167,#1763,#1764);
#1472=AXIS2_PLACEMENT_3D('',#2169,#1766,#1767);
#1473=AXIS2_PLACEMENT_3D('',#2173,#1770,#1771);
#1474=AXIS2_PLACEMENT_3D('',#2174,#1772,#1773);
#1475=AXIS2_PLACEMENT_3D('',#2175,#1774,#1775);
#1476=AXIS2_PLACEMENT_3D('',#2181,#1779,#1780);
#1477=AXIS2_PLACEMENT_3D('',#2184,#1781,#1782);
#1478=AXIS2_PLACEMENT_3D('',#2188,#1784,#1785);
#1479=AXIS2_PLACEMENT_3D('',#2191,#1787,#1788);
#1480=AXIS2_PLACEMENT_3D('',#2193,#1790,#1791);
#1481=AXIS2_PLACEMENT_3D('',#2196,#1792,#1793);
#1482=AXIS2_PLACEMENT_3D('',#2200,#1795,#1796);
#1483=AXIS2_PLACEMENT_3D('',#2203,#1798,#1799);
#1484=AXIS2_PLACEMENT_3D('',#2205,#1801,#1802);
#1485=AXIS2_PLACEMENT_3D('',#2208,#1805,#1806);
#1486=AXIS2_PLACEMENT_3D('',#2209,#1807,#1808);
#1487=AXIS2_PLACEMENT_3D('',#2211,#1810,#1811);
#1488=AXIS2_PLACEMENT_3D('',#2213,#1813,#1814);
#1489=AXIS2_PLACEMENT_3D('',#2214,#1815,#1816);
#1490=AXIS2_PLACEMENT_3D('',#2221,#1821,#1822);
#1491=AXIS2_PLACEMENT_3D('',#2225,#1825,#1826);
#1492=AXIS2_PLACEMENT_3D('',#2229,#1829,#1830);
#1493=AXIS2_PLACEMENT_3D('',#2231,#1832,#1833);
#1494=AXIS2_PLACEMENT_3D('',#2238,#1838,#1839);
#1495=AXIS2_PLACEMENT_3D('',#2242,#1842,#1843);
#1496=AXIS2_PLACEMENT_3D('',#2246,#1846,#1847);
#1497=AXIS2_PLACEMENT_3D('',#2248,#1849,#1850);
#1498=AXIS2_PLACEMENT_3D('',#2249,#1851,#1852);
#1499=AXIS2_PLACEMENT_3D('',#2250,#1853,#1854);
#1500=AXIS2_PLACEMENT_3D('',#2251,#1855,#1856);
#1501=AXIS2_PLACEMENT_3D('',#2255,#1859,#1860);
#1502=AXIS2_PLACEMENT_3D('',#2259,#1863,#1864);
#1503=AXIS2_PLACEMENT_3D('',#2261,#1866,#1867);
#1504=AXIS2_PLACEMENT_3D('',#2262,#1868,#1869);
#1505=AXIS2_PLACEMENT_3D('',#2264,#1871,#1872);
#1506=AXIS2_PLACEMENT_3D('',#2265,#1873,#1874);
#1507=AXIS2_PLACEMENT_3D('',#2266,#1875,#1876);
#1508=AXIS2_PLACEMENT_3D('',#2267,#1877,#1878);
#1509=DIRECTION('axis',(0.,0.,1.));
#1510=DIRECTION('refdir',(1.,0.,0.));
#1511=DIRECTION('axis',(0.,0.,1.));
#1512=DIRECTION('refdir',(1.,0.,0.));
#1513=DIRECTION('center_axis',(0.,0.,-1.));
#1514=DIRECTION('ref_axis',(0.632455532033578,0.774596669241563,0.));
#1515=DIRECTION('center_axis',(0.,0.,1.));
#1516=DIRECTION('ref_axis',(1.,0.,0.));
#1517=DIRECTION('',(0.,0.,-1.));
#1518=DIRECTION('center_axis',(0.,0.,1.));
#1519=DIRECTION('ref_axis',(1.,0.,0.));
#1520=DIRECTION('',(0.,0.,1.));
#1521=DIRECTION('center_axis',(0.,0.,1.));
#1522=DIRECTION('ref_axis',(1.,0.,0.));
#1523=DIRECTION('',(0.,1.,0.));
#1524=DIRECTION('',(1.,0.,0.));
#1525=DIRECTION('center_axis',(0.,1.,0.));
#1526=DIRECTION('ref_axis',(0.,0.,1.));
#1527=DIRECTION('',(1.,0.,0.));
#1528=DIRECTION('',(0.,0.,1.));
#1529=DIRECTION('',(0.,0.,1.));
#1530=DIRECTION('',(1.,0.,0.));
#1531=DIRECTION('center_axis',(0.,0.,1.));
#1532=DIRECTION('ref_axis',(1.,0.,0.));
#1533=DIRECTION('',(0.,1.,0.));
#1534=DIRECTION('',(1.,0.,0.));
#1535=DIRECTION('center_axis',(0.,0.,1.));
#1536=DIRECTION('ref_axis',(1.,0.,0.));
#1537=DIRECTION('center_axis',(0.,0.,1.));
#1538=DIRECTION('ref_axis',(1.,0.,0.));
#1539=DIRECTION('center_axis',(0.,0.,1.));
#1540=DIRECTION('ref_axis',(1.,0.,0.));
#1541=DIRECTION('',(1.,0.,0.));
#1542=DIRECTION('',(0.,1.,0.));
#1543=DIRECTION('center_axis',(0.,0.,1.));
#1544=DIRECTION('ref_axis',(1.,0.,0.));
#1545=DIRECTION('',(0.,1.,0.));
#1546=DIRECTION('',(1.,0.,0.));
#1547=DIRECTION('center_axis',(0.,0.,1.));
#1548=DIRECTION('ref_axis',(1.,0.,0.));
#1549=DIRECTION('center_axis',(1.,0.,0.));
#1550=DIRECTION('ref_axis',(0.,0.,1.));
#1551=DIRECTION('',(0.,0.,1.));
#1552=DIRECTION('',(0.,1.,0.));
#1553=DIRECTION('center_axis',(1.,0.,0.));
#1554=DIRECTION('ref_axis',(0.,0.,1.));
#1555=DIRECTION('',(0.,1.,0.));
#1556=DIRECTION('',(0.,0.,1.));
#1557=DIRECTION('',(0.,1.,0.));
#1558=DIRECTION('',(0.,0.,1.));
#1559=DIRECTION('',(0.,1.,0.));
#1560=DIRECTION('',(0.,0.,1.));
#1561=DIRECTION('center_axis',(0.,0.,1.));
#1562=DIRECTION('ref_axis',(1.,0.,0.));
#1563=DIRECTION('center_axis',(0.,1.,0.));
#1564=DIRECTION('ref_axis',(0.,0.,1.));
#1565=DIRECTION('center_axis',(0.,0.,1.));
#1566=DIRECTION('ref_axis',(1.,0.,0.));
#1567=DIRECTION('',(0.,1.,0.));
#1568=DIRECTION('',(1.,0.,0.));
#1569=DIRECTION('',(0.,1.,0.));
#1570=DIRECTION('',(-1.,0.,0.));
#1571=DIRECTION('',(0.,1.,0.));
#1572=DIRECTION('',(0.,1.,0.));
#1573=DIRECTION('',(0.,1.,0.));
#1574=DIRECTION('',(0.,1.,0.));
#1575=DIRECTION('',(0.,1.,0.));
#1576=DIRECTION('',(-1.,0.,0.));
#1577=DIRECTION('',(0.,1.,0.));
#1578=DIRECTION('',(0.,1.,0.));
#1579=DIRECTION('',(-1.,0.,0.));
#1580=DIRECTION('center_axis',(1.,0.,0.));
#1581=DIRECTION('ref_axis',(0.,0.,1.));
#1582=DIRECTION('',(0.,1.,0.));
#1583=DIRECTION('',(0.,0.,1.));
#1584=DIRECTION('center_axis',(0.,0.,1.));
#1585=DIRECTION('ref_axis',(1.,0.,0.));
#1586=DIRECTION('',(1.,0.,0.));
#1587=DIRECTION('',(0.,1.,0.));
#1588=DIRECTION('',(1.,0.,0.));
#1589=DIRECTION('center_axis',(0.,1.,0.));
#1590=DIRECTION('ref_axis',(0.,0.,1.));
#1591=DIRECTION('',(0.,0.,1.));
#1592=DIRECTION('center_axis',(1.,0.,0.));
#1593=DIRECTION('ref_axis',(0.,0.,1.));
#1594=DIRECTION('',(0.,0.,1.));
#1595=DIRECTION('',(0.,1.,0.));
#1596=DIRECTION('',(0.,0.,1.));
#1597=DIRECTION('center_axis',(0.,1.,0.));
#1598=DIRECTION('ref_axis',(0.,0.,1.));
#1599=DIRECTION('',(1.,0.,0.));
#1600=DIRECTION('',(-1.,0.,0.));
#1601=DIRECTION('',(0.,0.,1.));
#1602=DIRECTION('',(0.,0.,1.));
#1603=DIRECTION('',(-1.,0.,0.));
#1604=DIRECTION('',(0.,0.,1.));
#1605=DIRECTION('',(-1.,0.,0.));
#1606=DIRECTION('',(1.,0.,0.));
#1607=DIRECTION('',(1.,0.,0.));
#1608=DIRECTION('',(0.,0.,1.));
#1609=DIRECTION('',(1.,0.,0.));
#1610=DIRECTION('',(1.,0.,0.));
#1611=DIRECTION('',(0.,0.,1.));
#1612=DIRECTION('',(-1.,0.,0.));
#1613=DIRECTION('',(0.,0.,1.));
#1614=DIRECTION('',(1.,0.,0.));
#1615=DIRECTION('',(1.,0.,0.));
#1616=DIRECTION('',(0.,0.,1.));
#1617=DIRECTION('',(1.,0.,0.));
#1618=DIRECTION('',(-1.,0.,0.));
#1619=DIRECTION('',(0.,0.,1.));
#1620=DIRECTION('',(-1.,0.,0.));
#1621=DIRECTION('',(0.,0.,1.));
#1622=DIRECTION('',(-1.,0.,0.));
#1623=DIRECTION('',(0.,0.,1.));
#1624=DIRECTION('',(-1.,0.,0.));
#1625=DIRECTION('',(0.,0.,1.));
#1626=DIRECTION('center_axis',(1.,0.,0.));
#1627=DIRECTION('ref_axis',(0.,0.,1.));
#1628=DIRECTION('',(0.,0.,1.));
#1629=DIRECTION('',(0.,1.,0.));
#1630=DIRECTION('center_axis',(1.,0.,0.));
#1631=DIRECTION('ref_axis',(0.,0.,1.));
#1632=DIRECTION('',(0.,0.,1.));
#1633=DIRECTION('',(0.,1.,0.));
#1634=DIRECTION('',(0.,0.,1.));
#1635=DIRECTION('',(0.,0.,1.));
#1636=DIRECTION('center_axis',(1.,0.,0.));
#1637=DIRECTION('ref_axis',(0.,0.,1.));
#1638=DIRECTION('',(0.,0.,1.));
#1639=DIRECTION('',(0.,0.,1.));
#1640=DIRECTION('',(0.,1.,0.));
#1641=DIRECTION('center_axis',(1.,0.,0.));
#1642=DIRECTION('ref_axis',(0.,0.,1.));
#1643=DIRECTION('',(0.,0.,1.));
#1644=DIRECTION('',(0.,1.,0.));
#1645=DIRECTION('center_axis',(1.,0.,0.));
#1646=DIRECTION('ref_axis',(0.,0.,1.));
#1647=DIRECTION('',(0.,0.,1.));
#1648=DIRECTION('',(0.,1.,0.));
#1649=DIRECTION('center_axis',(1.,0.,0.));
#1650=DIRECTION('ref_axis',(0.,0.,1.));
#1651=DIRECTION('',(0.,0.,1.));
#1652=DIRECTION('',(0.,1.,0.));
#1653=DIRECTION('center_axis',(0.,1.,0.));
#1654=DIRECTION('ref_axis',(0.,0.,1.));
#1655=DIRECTION('',(1.,0.,0.));
#1656=DIRECTION('center_axis',(0.,1.,0.));
#1657=DIRECTION('ref_axis',(0.,0.,1.));
#1658=DIRECTION('',(1.,0.,0.));
#1659=DIRECTION('center_axis',(0.,0.,1.));
#1660=DIRECTION('ref_axis',(1.,0.,0.));
#1661=DIRECTION('center_axis',(0.,0.,-1.));
#1662=DIRECTION('ref_axis',(1.,0.,0.));
#1663=DIRECTION('center_axis',(0.,0.,-1.));
#1664=DIRECTION('ref_axis',(1.,0.,0.));
#1665=DIRECTION('center_axis',(0.,0.,1.));
#1666=DIRECTION('ref_axis',(1.,0.,0.));
#1667=DIRECTION('',(0.,1.,0.));
#1668=DIRECTION('',(0.,1.,0.));
#1669=DIRECTION('',(1.,0.,0.));
#1670=DIRECTION('center_axis',(0.,0.,1.));
#1671=DIRECTION('ref_axis',(1.,0.,0.));
#1672=DIRECTION('',(0.,1.,0.));
#1673=DIRECTION('',(1.,0.,0.));
#1674=DIRECTION('center_axis',(1.,0.,0.));
#1675=DIRECTION('ref_axis',(0.,0.,1.));
#1676=DIRECTION('',(0.,0.,1.));
#1677=DIRECTION('',(0.,1.,0.));
#1678=DIRECTION('center_axis',(0.,0.,1.));
#1679=DIRECTION('ref_axis',(1.,0.,0.));
#1680=DIRECTION('',(0.,1.,0.));
#1681=DIRECTION('',(1.,0.,0.));
#1682=DIRECTION('center_axis',(0.,0.,1.));
#1683=DIRECTION('ref_axis',(1.,0.,0.));
#1684=DIRECTION('',(0.,1.,0.));
#1685=DIRECTION('',(1.,0.,0.));
#1686=DIRECTION('center_axis',(1.,0.,0.));
#1687=DIRECTION('ref_axis',(0.,0.,1.));
#1688=DIRECTION('',(0.,0.,1.));
#1689=DIRECTION('',(0.,1.,0.));
#1690=DIRECTION('center_axis',(0.,0.,1.));
#1691=DIRECTION('ref_axis',(1.,0.,0.));
#1692=DIRECTION('',(0.,1.,0.));
#1693=DIRECTION('',(1.,0.,0.));
#1694=DIRECTION('center_axis',(1.,0.,0.));
#1695=DIRECTION('ref_axis',(0.,0.,1.));
#1696=DIRECTION('',(0.,0.,1.));
#1697=DIRECTION('',(0.,1.,0.));
#1698=DIRECTION('center_axis',(0.,0.,1.));
#1699=DIRECTION('ref_axis',(1.,0.,0.));
#1700=DIRECTION('',(0.,1.,0.));
#1701=DIRECTION('',(1.,0.,0.));
#1702=DIRECTION('center_axis',(0.,0.,1.));
#1703=DIRECTION('ref_axis',(1.,0.,0.));
#1704=DIRECTION('',(0.,1.,0.));
#1705=DIRECTION('',(1.,0.,0.));
#1706=DIRECTION('center_axis',(1.,0.,0.));
#1707=DIRECTION('ref_axis',(0.,0.,1.));
#1708=DIRECTION('',(0.,0.,1.));
#1709=DIRECTION('',(0.,1.,0.));
#1710=DIRECTION('center_axis',(0.,0.,1.));
#1711=DIRECTION('ref_axis',(1.,0.,0.));
#1712=DIRECTION('',(0.,1.,0.));
#1713=DIRECTION('',(1.,0.,0.));
#1714=DIRECTION('center_axis',(0.,0.,1.));
#1715=DIRECTION('ref_axis',(1.,0.,0.));
#1716=DIRECTION('',(0.,1.,0.));
#1717=DIRECTION('',(1.,0.,0.));
#1718=DIRECTION('center_axis',(0.,0.,1.));
#1719=DIRECTION('ref_axis',(1.,0.,0.));
#1720=DIRECTION('',(1.,0.,0.));
#1721=DIRECTION('center_axis',(0.,0.,1.));
#1722=DIRECTION('ref_axis',(1.,0.,0.));
#1723=DIRECTION('',(1.,0.,0.));
#1724=DIRECTION('center_axis',(0.,0.,1.));
#1725=DIRECTION('ref_axis',(1.,0.,0.));
#1726=DIRECTION('',(0.,1.,0.));
#1727=DIRECTION('',(1.,0.,0.));
#1728=DIRECTION('',(0.,1.,0.));
#1729=DIRECTION('center_axis',(1.,0.,0.));
#1730=DIRECTION('ref_axis',(0.,0.,1.));
#1731=DIRECTION('',(0.,1.,0.));
#1732=DIRECTION('',(0.,0.,1.));
#1733=DIRECTION('center_axis',(0.,0.,1.));
#1734=DIRECTION('ref_axis',(1.,0.,0.));
#1735=DIRECTION('',(0.,1.,0.));
#1736=DIRECTION('',(1.,0.,0.));
#1737=DIRECTION('center_axis',(1.,0.,0.));
#1738=DIRECTION('ref_axis',(0.,0.,1.));
#1739=DIRECTION('',(0.,0.,1.));
#1740=DIRECTION('center_axis',(0.,0.,1.));
#1741=DIRECTION('ref_axis',(1.,0.,0.));
#1742=DIRECTION('',(0.,1.,0.));
#1743=DIRECTION('',(1.,0.,0.));
#1744=DIRECTION('',(0.,1.,0.));
#1745=DIRECTION('center_axis',(1.,0.,0.));
#1746=DIRECTION('ref_axis',(0.,0.,1.));
#1747=DIRECTION('',(0.,1.,0.));
#1748=DIRECTION('',(0.,0.,1.));
#1749=DIRECTION('center_axis',(0.,0.,1.));
#1750=DIRECTION('ref_axis',(1.,0.,0.));
#1751=DIRECTION('',(0.,1.,0.));
#1752=DIRECTION('',(1.,0.,0.));
#1753=DIRECTION('center_axis',(1.,0.,0.));
#1754=DIRECTION('ref_axis',(0.,0.,1.));
#1755=DIRECTION('',(0.,0.,1.));
#1756=DIRECTION('center_axis',(0.,1.,0.));
#1757=DIRECTION('ref_axis',(0.,0.,1.));
#1758=DIRECTION('',(1.,0.,0.));
#1759=DIRECTION('',(1.,0.,0.));
#1760=DIRECTION('',(0.,0.,1.));
#1761=DIRECTION('center_axis',(0.,0.,1.));
#1762=DIRECTION('ref_axis',(1.,0.,0.));
#1763=DIRECTION('center_axis',(0.,0.,1.));
#1764=DIRECTION('ref_axis',(1.,0.,0.));
#1765=DIRECTION('',(1.,0.,0.));
#1766=DIRECTION('center_axis',(0.,1.,0.));
#1767=DIRECTION('ref_axis',(0.,0.,1.));
#1768=DIRECTION('',(0.,0.,-1.));
#1769=DIRECTION('',(1.,0.,0.));
#1770=DIRECTION('center_axis',(0.,0.,1.));
#1771=DIRECTION('ref_axis',(1.,0.,0.));
#1772=DIRECTION('center_axis',(0.,0.,1.));
#1773=DIRECTION('ref_axis',(1.,0.,0.));
#1774=DIRECTION('center_axis',(0.,1.,0.));
#1775=DIRECTION('ref_axis',(0.,0.,1.));
#1776=DIRECTION('',(0.,0.,1.));
#1777=DIRECTION('',(1.,0.,0.));
#1778=DIRECTION('',(0.,0.,1.));
#1779=DIRECTION('center_axis',(0.,0.,-1.));
#1780=DIRECTION('ref_axis',(1.,0.,0.));
#1781=DIRECTION('center_axis',(0.,0.,-1.));
#1782=DIRECTION('ref_axis',(1.,0.,0.));
#1783=DIRECTION('',(0.,0.,-1.));
#1784=DIRECTION('center_axis',(0.,0.,1.));
#1785=DIRECTION('ref_axis',(1.,0.,0.));
#1786=DIRECTION('',(0.,0.,-1.));
#1787=DIRECTION('center_axis',(0.,0.,-1.));
#1788=DIRECTION('ref_axis',(1.,0.,0.));
#1789=DIRECTION('',(0.,0.,-1.));
#1790=DIRECTION('center_axis',(0.,0.,-1.));
#1791=DIRECTION('ref_axis',(1.,0.,0.));
#1792=DIRECTION('center_axis',(0.,0.,-1.));
#1793=DIRECTION('ref_axis',(1.,0.,0.));
#1794=DIRECTION('',(0.,0.,-1.));
#1795=DIRECTION('center_axis',(0.,0.,1.));
#1796=DIRECTION('ref_axis',(1.,0.,0.));
#1797=DIRECTION('',(0.,0.,-1.));
#1798=DIRECTION('center_axis',(0.,0.,-1.));
#1799=DIRECTION('ref_axis',(1.,0.,0.));
#1800=DIRECTION('',(0.,0.,-1.));
#1801=DIRECTION('center_axis',(0.,1.,0.));
#1802=DIRECTION('ref_axis',(0.,0.,1.));
#1803=DIRECTION('',(0.,0.,1.));
#1804=DIRECTION('',(0.,0.,1.));
#1805=DIRECTION('center_axis',(0.,1.,0.));
#1806=DIRECTION('ref_axis',(0.,0.,1.));
#1807=DIRECTION('center_axis',(0.,1.,0.));
#1808=DIRECTION('ref_axis',(0.,0.,1.));
#1809=DIRECTION('',(0.,0.,1.));
#1810=DIRECTION('center_axis',(0.,1.,0.));
#1811=DIRECTION('ref_axis',(0.,0.,1.));
#1812=DIRECTION('',(0.,0.,1.));
#1813=DIRECTION('center_axis',(0.,1.,0.));
#1814=DIRECTION('ref_axis',(0.,0.,1.));
#1815=DIRECTION('center_axis',(0.,0.,1.));
#1816=DIRECTION('ref_axis',(1.,0.,0.));
#1817=DIRECTION('',(0.,1.,0.));
#1818=DIRECTION('',(1.,0.,0.));
#1819=DIRECTION('',(1.,0.,0.));
#1820=DIRECTION('',(0.,1.,0.));
#1821=DIRECTION('center_axis',(1.,0.,0.));
#1822=DIRECTION('ref_axis',(0.,0.,1.));
#1823=DIRECTION('',(0.,1.,0.));
#1824=DIRECTION('',(0.,0.,1.));
#1825=DIRECTION('center_axis',(0.,0.,1.));
#1826=DIRECTION('ref_axis',(1.,0.,0.));
#1827=DIRECTION('',(0.,1.,0.));
#1828=DIRECTION('',(1.,0.,0.));
#1829=DIRECTION('center_axis',(1.,0.,0.));
#1830=DIRECTION('ref_axis',(0.,0.,1.));
#1831=DIRECTION('',(0.,0.,1.));
#1832=DIRECTION('center_axis',(0.,0.,1.));
#1833=DIRECTION('ref_axis',(1.,0.,0.));
#1834=DIRECTION('',(0.,1.,0.));
#1835=DIRECTION('',(1.,0.,0.));
#1836=DIRECTION('',(1.,0.,0.));
#1837=DIRECTION('',(0.,1.,0.));
#1838=DIRECTION('center_axis',(1.,0.,0.));
#1839=DIRECTION('ref_axis',(0.,0.,1.));
#1840=DIRECTION('',(0.,1.,0.));
#1841=DIRECTION('',(0.,0.,1.));
#1842=DIRECTION('center_axis',(0.,0.,1.));
#1843=DIRECTION('ref_axis',(1.,0.,0.));
#1844=DIRECTION('',(0.,1.,0.));
#1845=DIRECTION('',(1.,0.,0.));
#1846=DIRECTION('center_axis',(1.,0.,0.));
#1847=DIRECTION('ref_axis',(0.,0.,1.));
#1848=DIRECTION('',(0.,0.,1.));
#1849=DIRECTION('center_axis',(0.,0.,-1.));
#1850=DIRECTION('ref_axis',(-0.63245553203367,0.774596669241488,0.));
#1851=DIRECTION('center_axis',(0.,0.,1.));
#1852=DIRECTION('ref_axis',(1.,0.,0.));
#1853=DIRECTION('center_axis',(0.,0.,1.));
#1854=DIRECTION('ref_axis',(1.,0.,0.));
#1855=DIRECTION('center_axis',(0.,0.,1.));
#1856=DIRECTION('ref_axis',(1.,0.,0.));
#1857=DIRECTION('',(0.,1.,0.));
#1858=DIRECTION('',(1.,0.,0.));
#1859=DIRECTION('center_axis',(0.,0.,1.));
#1860=DIRECTION('ref_axis',(1.,0.,0.));
#1861=DIRECTION('',(0.,1.,0.));
#1862=DIRECTION('',(1.,0.,0.));
#1863=DIRECTION('center_axis',(0.,1.,0.));
#1864=DIRECTION('ref_axis',(0.,0.,1.));
#1865=DIRECTION('',(1.,0.,0.));
#1866=DIRECTION('center_axis',(0.,0.,1.));
#1867=DIRECTION('ref_axis',(1.,0.,0.));
#1868=DIRECTION('center_axis',(0.,1.,0.));
#1869=DIRECTION('ref_axis',(0.,0.,1.));
#1870=DIRECTION('',(1.,0.,0.));
#1871=DIRECTION('center_axis',(0.,0.,1.));
#1872=DIRECTION('ref_axis',(1.,0.,0.));
#1873=DIRECTION('center_axis',(0.,0.,1.));
#1874=DIRECTION('ref_axis',(1.,0.,0.));
#1875=DIRECTION('center_axis',(0.,0.,1.));
#1876=DIRECTION('ref_axis',(1.,0.,0.));
#1877=DIRECTION('',(2.05588691707009E-16,-8.93112344209186E-16,0.999999999999997));
#1878=DIRECTION('',(1.00000000000001,3.80771802976909E-16,-3.62015105392909E-16));
#1879=CARTESIAN_POINT('',(0.,0.,0.));
#1880=CARTESIAN_POINT('',(0.,0.,0.));
#1881=CARTESIAN_POINT('Origin',(-20.,-54.,4.7));
#1882=CARTESIAN_POINT('',(-20.,-56.5,4.7));
#1883=CARTESIAN_POINT('',(-22.44948974278,-54.5,4.7));
#1884=CARTESIAN_POINT('Origin',(-20.,-54.,4.7));
#1885=CARTESIAN_POINT('',(-22.44948974278,-54.5,6.5));
#1886=CARTESIAN_POINT('',(-22.44948974278,-54.5,4.7));
#1887=CARTESIAN_POINT('',(-20.,-56.5,6.5));
#1888=CARTESIAN_POINT('Origin',(-20.,-54.,6.5));
#1889=CARTESIAN_POINT('',(-20.,-56.5,4.7));
#1890=CARTESIAN_POINT('Origin',(-20.,-54.,4.7));
#1891=CARTESIAN_POINT('',(-20.,-54.5,4.7));
#1892=CARTESIAN_POINT('',(-20.,-56.5,4.7));
#1893=CARTESIAN_POINT('',(-50.5,-54.5,4.7));
#1894=CARTESIAN_POINT('Origin',(-50.5,-54.5,4.7));
#1895=CARTESIAN_POINT('',(-50.5,-54.5,4.7));
#1896=CARTESIAN_POINT('',(-50.5,-54.5,4.7));
#1897=CARTESIAN_POINT('',(-50.5,-54.5,6.));
#1898=CARTESIAN_POINT('',(-50.5,-54.5,4.7));
#1899=CARTESIAN_POINT('',(-50.5,-54.5,6.5));
#1900=CARTESIAN_POINT('',(-50.5,-54.5,4.7));
#1901=CARTESIAN_POINT('',(-50.5,-54.5,6.5));
#1902=CARTESIAN_POINT('Origin',(-20.,-54.,6.5));
#1903=CARTESIAN_POINT('',(-20.,-54.5,6.5));
#1904=CARTESIAN_POINT('',(-20.,-56.5,6.5));
#1905=CARTESIAN_POINT('',(-50.5,-54.5,6.5));
#1906=CARTESIAN_POINT('Origin',(-20.,-54.,4.7));
#1907=CARTESIAN_POINT('Origin',(-20.,-54.,4.7));
#1908=CARTESIAN_POINT('Origin',(-50.5,-56.5,4.7));
#1909=CARTESIAN_POINT('',(-50.5,-56.5,4.7));
#1910=CARTESIAN_POINT('',(-50.5,-56.5,4.7));
#1911=CARTESIAN_POINT('',(-50.5,-56.5,4.7));
#1912=CARTESIAN_POINT('Origin',(-50.5,-56.5,6.5));
#1913=CARTESIAN_POINT('',(-50.5,-56.5,6.5));
#1914=CARTESIAN_POINT('',(-50.5,-56.5,6.5));
#1915=CARTESIAN_POINT('',(-50.5,-56.5,6.5));
#1916=CARTESIAN_POINT('Origin',(-20.,-54.,6.5));
#1917=CARTESIAN_POINT('Origin',(-50.5,-56.5,4.7));
#1918=CARTESIAN_POINT('',(-50.5,-56.5,6.));
#1919=CARTESIAN_POINT('',(-50.5,-56.5,4.7));
#1920=CARTESIAN_POINT('',(-50.5,-60.25,6.));
#1921=CARTESIAN_POINT('Origin',(-50.5,-58.5,4.5));
#1922=CARTESIAN_POINT('',(-50.5,-58.5,6.));
#1923=CARTESIAN_POINT('',(-50.5,-60.25,6.));
#1924=CARTESIAN_POINT('',(-50.5,-58.5,4.5));
#1925=CARTESIAN_POINT('',(-50.5,-58.5,4.5));
#1926=CARTESIAN_POINT('',(-50.5,-52.5,4.5));
#1927=CARTESIAN_POINT('',(-50.5,-58.5,4.5));
#1928=CARTESIAN_POINT('',(-50.5,-52.5,6.));
#1929=CARTESIAN_POINT('',(-50.5,-52.5,4.));
#1930=CARTESIAN_POINT('',(-50.5,-60.25,6.));
#1931=CARTESIAN_POINT('',(-50.5,-56.5,4.7));
#1932=CARTESIAN_POINT('Origin',(-20.,-54.,6.5));
#1933=CARTESIAN_POINT('Origin',(-50.5,-56.5,4.7));
#1934=CARTESIAN_POINT('Origin',(-64.,-62.,6.));
#1935=CARTESIAN_POINT('',(-64.,-62.,6.));
#1936=CARTESIAN_POINT('',(-64.,-47.5,6.));
#1937=CARTESIAN_POINT('',(-64.,-62.,6.));
#1938=CARTESIAN_POINT('',(64.,-62.,6.));
#1939=CARTESIAN_POINT('',(-64.,-62.,6.));
#1940=CARTESIAN_POINT('',(64.,-47.5,6.));
#1941=CARTESIAN_POINT('',(64.,-62.,6.));
#1942=CARTESIAN_POINT('',(50.5,-47.5,6.));
#1943=CARTESIAN_POINT('',(-64.5,-47.5,6.));
#1944=CARTESIAN_POINT('',(50.5,-48.5,6.));
#1945=CARTESIAN_POINT('',(50.5,-57.25,6.));
#1946=CARTESIAN_POINT('',(50.5,-52.5,6.));
#1947=CARTESIAN_POINT('',(50.5,-57.25,6.));
#1948=CARTESIAN_POINT('',(50.5,-54.5,6.));
#1949=CARTESIAN_POINT('',(50.5,-60.25,6.));
#1950=CARTESIAN_POINT('',(50.5,-56.5,6.));
#1951=CARTESIAN_POINT('',(50.5,-60.25,6.));
#1952=CARTESIAN_POINT('',(50.5,-58.5,6.));
#1953=CARTESIAN_POINT('',(50.5,-60.25,6.));
#1954=CARTESIAN_POINT('',(-57.25,-58.5,6.));
#1955=CARTESIAN_POINT('',(-50.5,-48.5,6.));
#1956=CARTESIAN_POINT('',(-50.5,-57.25,6.));
#1957=CARTESIAN_POINT('',(-50.5,-47.5,6.));
#1958=CARTESIAN_POINT('',(-50.5,-57.25,6.));
#1959=CARTESIAN_POINT('',(-64.5,-47.5,6.));
#1960=CARTESIAN_POINT('Origin',(-50.5,-52.5,4.));
#1961=CARTESIAN_POINT('',(-50.5,-48.5,4.5));
#1962=CARTESIAN_POINT('',(-50.5,-58.5,4.5));
#1963=CARTESIAN_POINT('',(-50.5,-48.5,4.5));
#1964=CARTESIAN_POINT('Origin',(-50.5,-58.5,4.5));
#1965=CARTESIAN_POINT('',(50.5,-58.5,4.5));
#1966=CARTESIAN_POINT('',(-50.5,-58.5,4.5));
#1967=CARTESIAN_POINT('',(50.5,-52.5,4.5));
#1968=CARTESIAN_POINT('',(50.5,-58.5,4.5));
#1969=CARTESIAN_POINT('',(-50.5,-52.5,4.5));
#1970=CARTESIAN_POINT('Origin',(-50.5,-58.5,4.5));
#1971=CARTESIAN_POINT('',(50.5,-58.5,4.5));
#1972=CARTESIAN_POINT('Origin',(-64.,-62.,-6.));
#1973=CARTESIAN_POINT('',(-64.,-47.5,-6.));
#1974=CARTESIAN_POINT('',(-64.,-47.5,-6.5));
#1975=CARTESIAN_POINT('',(-64.,-62.,-6.));
#1976=CARTESIAN_POINT('',(-64.,-62.,-6.));
#1977=CARTESIAN_POINT('',(-64.,-62.,-6.));
#1978=CARTESIAN_POINT('Origin',(-65.,-47.5,-7.));
#1979=CARTESIAN_POINT('',(50.55,-47.5,4.2));
#1980=CARTESIAN_POINT('',(51.85,-47.5,4.2));
#1981=CARTESIAN_POINT('',(50.55,-47.5,4.2));
#1982=CARTESIAN_POINT('',(50.5,-47.5,4.2));
#1983=CARTESIAN_POINT('',(-57.775,-47.5,4.2));
#1984=CARTESIAN_POINT('',(50.5,-47.5,-1.5));
#1985=CARTESIAN_POINT('',(64.,-47.5,-6.));
#1986=CARTESIAN_POINT('',(64.,-47.5,-6.5));
#1987=CARTESIAN_POINT('',(-64.5,-47.5,-6.));
#1988=CARTESIAN_POINT('',(-50.5,-47.5,4.2));
#1989=CARTESIAN_POINT('',(-50.5,-47.5,-1.5));
#1990=CARTESIAN_POINT('',(-50.55,-47.5,4.2));
#1991=CARTESIAN_POINT('',(-57.775,-47.5,4.2));
#1992=CARTESIAN_POINT('',(-51.85,-47.5,4.2));
#1993=CARTESIAN_POINT('',(-52.35,-47.5,4.2));
#1994=CARTESIAN_POINT('',(-52.35,-47.5,4.2));
#1995=CARTESIAN_POINT('',(-52.35,-47.5,4.2));
#1996=CARTESIAN_POINT('',(-52.35,-47.5,-5.5));
#1997=CARTESIAN_POINT('',(-52.35,-47.5,-5.5));
#1998=CARTESIAN_POINT('',(-51.85,-47.5,-5.5));
#1999=CARTESIAN_POINT('',(-52.35,-47.5,-5.5));
#2000=CARTESIAN_POINT('',(-50.55,-47.5,-5.5));
#2001=CARTESIAN_POINT('',(-52.35,-47.5,-5.5));
#2002=CARTESIAN_POINT('',(-50.55,-47.5,-3.));
#2003=CARTESIAN_POINT('',(-50.55,-47.5,-5.5));
#2004=CARTESIAN_POINT('',(50.55,-47.5,-3.));
#2005=CARTESIAN_POINT('',(-57.775,-47.5,-3.));
#2006=CARTESIAN_POINT('',(50.55,-47.5,-5.5));
#2007=CARTESIAN_POINT('',(50.55,-47.5,-5.5));
#2008=CARTESIAN_POINT('',(51.85,-47.5,-5.5));
#2009=CARTESIAN_POINT('',(50.55,-47.5,-5.5));
#2010=CARTESIAN_POINT('',(52.35,-47.5,-5.5));
#2011=CARTESIAN_POINT('',(50.55,-47.5,-5.5));
#2012=CARTESIAN_POINT('',(52.35,-47.5,4.2));
#2013=CARTESIAN_POINT('',(52.35,-47.5,-5.5));
#2014=CARTESIAN_POINT('',(50.55,-47.5,4.2));
#2015=CARTESIAN_POINT('',(-57.4,-47.5,-4.7));
#2016=CARTESIAN_POINT('',(-62.6,-47.5,-4.7));
#2017=CARTESIAN_POINT('',(-63.8,-47.5,-4.7));
#2018=CARTESIAN_POINT('',(-57.4,-47.5,0.7));
#2019=CARTESIAN_POINT('',(-57.4,-47.5,-5.85));
#2020=CARTESIAN_POINT('',(-62.6,-47.5,0.7));
#2021=CARTESIAN_POINT('',(-63.8,-47.5,0.7));
#2022=CARTESIAN_POINT('',(-62.6,-47.5,-5.85));
#2023=CARTESIAN_POINT('',(62.6,-47.5,-4.7));
#2024=CARTESIAN_POINT('',(57.4,-47.5,-4.7));
#2025=CARTESIAN_POINT('',(-3.8,-47.5,-4.7));
#2026=CARTESIAN_POINT('',(62.6,-47.5,0.7));
#2027=CARTESIAN_POINT('',(62.6,-47.5,-5.85));
#2028=CARTESIAN_POINT('',(57.4,-47.5,0.7));
#2029=CARTESIAN_POINT('',(-3.8,-47.5,0.7));
#2030=CARTESIAN_POINT('',(57.4,-47.5,-5.85));
#2031=CARTESIAN_POINT('Origin',(-50.5,-52.5,4.));
#2032=CARTESIAN_POINT('',(-50.5,-52.5,4.2));
#2033=CARTESIAN_POINT('',(-50.5,-52.5,4.));
#2034=CARTESIAN_POINT('',(-50.5,-52.5,4.2));
#2035=CARTESIAN_POINT('Origin',(50.5,-58.5,4.5));
#2036=CARTESIAN_POINT('',(50.5,-56.5,4.7));
#2037=CARTESIAN_POINT('',(50.5,-56.5,4.7));
#2038=CARTESIAN_POINT('',(50.5,-54.5,4.7));
#2039=CARTESIAN_POINT('',(50.5,-56.5,4.7));
#2040=CARTESIAN_POINT('',(50.5,-54.5,4.7));
#2041=CARTESIAN_POINT('',(50.5,-52.5,4.));
#2042=CARTESIAN_POINT('Origin',(50.5,-56.5,4.7));
#2043=CARTESIAN_POINT('',(50.5,-56.5,6.5));
#2044=CARTESIAN_POINT('',(50.5,-56.5,4.7));
#2045=CARTESIAN_POINT('',(50.5,-54.5,6.5));
#2046=CARTESIAN_POINT('',(50.5,-54.5,4.7));
#2047=CARTESIAN_POINT('',(50.5,-56.5,6.5));
#2048=CARTESIAN_POINT('Origin',(50.5,-52.5,4.));
#2049=CARTESIAN_POINT('',(50.5,-48.5,4.5));
#2050=CARTESIAN_POINT('',(50.5,-48.5,4.5));
#2051=CARTESIAN_POINT('',(50.5,-58.5,4.5));
#2052=CARTESIAN_POINT('Origin',(50.5,-52.5,4.));
#2053=CARTESIAN_POINT('',(50.5,-52.5,4.2));
#2054=CARTESIAN_POINT('',(50.5,-52.5,4.));
#2055=CARTESIAN_POINT('',(50.5,-52.5,4.2));
#2056=CARTESIAN_POINT('Origin',(64.,-62.,-6.));
#2057=CARTESIAN_POINT('',(64.,-62.,-6.));
#2058=CARTESIAN_POINT('',(64.,-62.,-6.));
#2059=CARTESIAN_POINT('',(64.,-62.,-6.));
#2060=CARTESIAN_POINT('Origin',(-64.,-62.,-6.));
#2061=CARTESIAN_POINT('',(-64.,-62.,-6.));
#2062=CARTESIAN_POINT('Origin',(-50.5,-52.5,4.));
#2063=CARTESIAN_POINT('',(-50.55,-52.5,4.2));
#2064=CARTESIAN_POINT('Origin',(-64.,-62.,-6.));
#2065=CARTESIAN_POINT('',(-62.,-52.,-6.));
#2066=CARTESIAN_POINT('Origin',(-60.,-52.,-6.));
#2067=CARTESIAN_POINT('',(58.,-52.,-6.));
#2068=CARTESIAN_POINT('Origin',(60.,-52.,-6.));
#2069=CARTESIAN_POINT('Origin',(50.55,-52.5,4.2));
#2070=CARTESIAN_POINT('',(50.55,-52.5,4.2));
#2071=CARTESIAN_POINT('',(50.55,-52.5,4.2));
#2072=CARTESIAN_POINT('',(51.85,-52.5,4.2));
#2073=CARTESIAN_POINT('',(51.85,-52.5,4.2));
#2074=CARTESIAN_POINT('',(50.55,-52.5,4.2));
#2075=CARTESIAN_POINT('Origin',(50.55,-52.5,4.2));
#2076=CARTESIAN_POINT('',(52.35,-52.5,4.2));
#2077=CARTESIAN_POINT('',(52.35,-52.5,4.2));
#2078=CARTESIAN_POINT('',(50.55,-52.5,4.2));
#2079=CARTESIAN_POINT('Origin',(52.35,-52.5,-5.5));
#2080=CARTESIAN_POINT('',(52.35,-52.5,-5.5));
#2081=CARTESIAN_POINT('',(52.35,-52.5,-5.5));
#2082=CARTESIAN_POINT('',(52.35,-52.5,-5.5));
#2083=CARTESIAN_POINT('Origin',(50.55,-52.5,-5.5));
#2084=CARTESIAN_POINT('',(51.85,-52.5,-5.5));
#2085=CARTESIAN_POINT('',(51.85,-52.5,-5.5));
#2086=CARTESIAN_POINT('',(50.55,-52.5,-5.5));
#2087=CARTESIAN_POINT('Origin',(50.55,-52.5,-5.5));
#2088=CARTESIAN_POINT('',(50.55,-52.5,-5.5));
#2089=CARTESIAN_POINT('',(50.55,-52.5,-5.5));
#2090=CARTESIAN_POINT('',(50.55,-52.5,-5.5));
#2091=CARTESIAN_POINT('Origin',(50.55,-52.5,-5.5));
#2092=CARTESIAN_POINT('',(50.55,-52.5,-3.));
#2093=CARTESIAN_POINT('',(50.55,-52.5,-5.5));
#2094=CARTESIAN_POINT('',(50.55,-52.5,-3.));
#2095=CARTESIAN_POINT('Origin',(-50.55,-52.5,-3.));
#2096=CARTESIAN_POINT('',(-50.55,-52.5,-3.));
#2097=CARTESIAN_POINT('',(-50.55,-52.5,-3.));
#2098=CARTESIAN_POINT('',(-50.55,-52.5,-3.));
#2099=CARTESIAN_POINT('Origin',(-50.55,-52.5,-5.5));
#2100=CARTESIAN_POINT('',(-50.55,-52.5,-5.5));
#2101=CARTESIAN_POINT('',(-50.55,-52.5,-5.5));
#2102=CARTESIAN_POINT('',(-50.55,-52.5,-5.5));
#2103=CARTESIAN_POINT('Origin',(-51.85,-52.5,-5.5));
#2104=CARTESIAN_POINT('',(-51.85,-52.5,-5.5));
#2105=CARTESIAN_POINT('',(-51.85,-52.5,-5.5));
#2106=CARTESIAN_POINT('',(-51.85,-52.5,-5.5));
#2107=CARTESIAN_POINT('Origin',(-52.35,-52.5,-5.5));
#2108=CARTESIAN_POINT('',(-52.35,-52.5,-5.5));
#2109=CARTESIAN_POINT('',(-52.35,-52.5,-5.5));
#2110=CARTESIAN_POINT('',(-52.35,-52.5,-5.5));
#2111=CARTESIAN_POINT('Origin',(-52.35,-52.5,-5.5));
#2112=CARTESIAN_POINT('',(-52.35,-52.5,4.2));
#2113=CARTESIAN_POINT('',(-52.35,-52.5,-5.5));
#2114=CARTESIAN_POINT('',(-52.35,-52.5,4.2));
#2115=CARTESIAN_POINT('Origin',(-52.35,-52.5,4.2));
#2116=CARTESIAN_POINT('',(-51.85,-52.5,4.2));
#2117=CARTESIAN_POINT('',(-51.85,-52.5,4.2));
#2118=CARTESIAN_POINT('',(-52.35,-52.5,4.2));
#2119=CARTESIAN_POINT('Origin',(-51.85,-52.5,4.2));
#2120=CARTESIAN_POINT('',(-50.55,-52.5,4.2));
#2121=CARTESIAN_POINT('',(-50.55,-52.5,4.2));
#2122=CARTESIAN_POINT('',(-51.85,-52.5,4.2));
#2123=CARTESIAN_POINT('Origin',(-50.55,-52.5,4.2));
#2124=CARTESIAN_POINT('',(-50.55,-52.5,4.2));
#2125=CARTESIAN_POINT('Origin',(-50.55,-52.5,4.2));
#2126=CARTESIAN_POINT('',(-50.55,-52.5,4.2));
#2127=CARTESIAN_POINT('Origin',(-62.6,-52.65,-4.7));
#2128=CARTESIAN_POINT('',(-62.6,-47.65,-4.7));
#2129=CARTESIAN_POINT('',(-62.6,-52.65,-4.7));
#2130=CARTESIAN_POINT('',(-57.4,-47.65,-4.7));
#2131=CARTESIAN_POINT('',(-62.6,-47.65,-4.7));
#2132=CARTESIAN_POINT('',(-57.4,-52.65,-4.7));
#2133=CARTESIAN_POINT('Origin',(-62.6,-52.65,-4.7));
#2134=CARTESIAN_POINT('',(-62.6,-47.65,0.7));
#2135=CARTESIAN_POINT('',(-62.6,-52.65,0.7));
#2136=CARTESIAN_POINT('',(-62.6,-47.65,-4.7));
#2137=CARTESIAN_POINT('Origin',(-62.6,-52.65,0.7));
#2138=CARTESIAN_POINT('',(-57.4,-47.65,0.7));
#2139=CARTESIAN_POINT('',(-57.4,-52.65,0.7));
#2140=CARTESIAN_POINT('',(-62.6,-47.65,0.7));
#2141=CARTESIAN_POINT('Origin',(-57.4,-52.65,-4.7));
#2142=CARTESIAN_POINT('',(-57.4,-47.65,-4.7));
#2143=CARTESIAN_POINT('Origin',(57.4,-52.65,-4.7));
#2144=CARTESIAN_POINT('',(57.4,-47.65,-4.7));
#2145=CARTESIAN_POINT('',(57.4,-52.65,-4.7));
#2146=CARTESIAN_POINT('',(62.6,-47.65,-4.7));
#2147=CARTESIAN_POINT('',(57.4,-47.65,-4.7));
#2148=CARTESIAN_POINT('',(62.6,-52.65,-4.7));
#2149=CARTESIAN_POINT('Origin',(57.4,-52.65,-4.7));
#2150=CARTESIAN_POINT('',(57.4,-47.65,0.7));
#2151=CARTESIAN_POINT('',(57.4,-52.65,0.7));
#2152=CARTESIAN_POINT('',(57.4,-47.65,-4.7));
#2153=CARTESIAN_POINT('Origin',(57.4,-52.65,0.7));
#2154=CARTESIAN_POINT('',(62.6,-47.65,0.7));
#2155=CARTESIAN_POINT('',(62.6,-52.65,0.7));
#2156=CARTESIAN_POINT('',(57.4,-47.65,0.7));
#2157=CARTESIAN_POINT('Origin',(62.6,-52.65,-4.7));
#2158=CARTESIAN_POINT('',(62.6,-47.65,-4.7));
#2159=CARTESIAN_POINT('Origin',(20.,-56.5,4.7));
#2160=CARTESIAN_POINT('',(20.,-56.5,4.7));
#2161=CARTESIAN_POINT('',(20.,-56.5,4.7));
#2162=CARTESIAN_POINT('',(20.,-56.5,6.5));
#2163=CARTESIAN_POINT('',(20.,-56.5,6.5));
#2164=CARTESIAN_POINT('',(20.,-56.5,4.7));
#2165=CARTESIAN_POINT('Origin',(20.,-56.5,4.7));
#2166=CARTESIAN_POINT('',(22.449489742783,-54.5,4.7));
#2167=CARTESIAN_POINT('Origin',(20.,-54.,4.7));
#2168=CARTESIAN_POINT('',(20.,-54.5,4.7));
#2169=CARTESIAN_POINT('Origin',(20.,-54.5,4.7));
#2170=CARTESIAN_POINT('',(22.449489742783,-54.5,6.5));
#2171=CARTESIAN_POINT('',(22.449489742783,-54.5,4.7));
#2172=CARTESIAN_POINT('',(20.,-54.5,6.5));
#2173=CARTESIAN_POINT('Origin',(20.,-56.5,6.5));
#2174=CARTESIAN_POINT('Origin',(20.,-54.,6.5));
#2175=CARTESIAN_POINT('Origin',(-50.55,-52.5,-3.));
#2176=CARTESIAN_POINT('',(50.5,-52.5,4.));
#2177=CARTESIAN_POINT('',(50.5,-52.5,4.));
#2178=CARTESIAN_POINT('',(-50.5,-52.5,4.));
#2179=CARTESIAN_POINT('',(-50.5,-52.5,4.));
#2180=CARTESIAN_POINT('',(-50.5,-52.5,4.));
#2181=CARTESIAN_POINT('Origin',(-60.,-52.,-7.));
#2182=CARTESIAN_POINT('',(-61.89142803193,-52.65,-4.7));
#2183=CARTESIAN_POINT('',(-62.,-52.,-4.7));
#2184=CARTESIAN_POINT('Origin',(-60.,-52.,-4.7));
#2185=CARTESIAN_POINT('',(-61.89142803193,-52.65,-4.));
#2186=CARTESIAN_POINT('',(-61.89142803193,-52.65,-7.));
#2187=CARTESIAN_POINT('',(-58.10857196806,-52.65,-4.));
#2188=CARTESIAN_POINT('Origin',(-60.,-52.,-4.));
#2189=CARTESIAN_POINT('',(-58.10857196806,-52.65,-4.7));
#2190=CARTESIAN_POINT('',(-58.10857196806,-52.65,-7.));
#2191=CARTESIAN_POINT('Origin',(-60.,-52.,-4.7));
#2192=CARTESIAN_POINT('',(-62.,-52.,-7.));
#2193=CARTESIAN_POINT('Origin',(60.,-52.,-7.));
#2194=CARTESIAN_POINT('',(58.108571968063,-52.65,-4.7));
#2195=CARTESIAN_POINT('',(58.,-52.,-4.7));
#2196=CARTESIAN_POINT('Origin',(60.,-52.,-4.7));
#2197=CARTESIAN_POINT('',(58.108571968062,-52.65,-4.));
#2198=CARTESIAN_POINT('',(58.108571968062,-52.65,-7.));
#2199=CARTESIAN_POINT('',(61.891428031938,-52.65,-4.));
#2200=CARTESIAN_POINT('Origin',(60.,-52.,-4.));
#2201=CARTESIAN_POINT('',(61.891428031937,-52.65,-4.7));
#2202=CARTESIAN_POINT('',(61.891428031938,-52.65,-7.));
#2203=CARTESIAN_POINT('Origin',(60.,-52.,-4.7));
#2204=CARTESIAN_POINT('',(58.,-52.,-7.));
#2205=CARTESIAN_POINT('Origin',(50.55,-52.5,-5.5));
#2206=CARTESIAN_POINT('',(50.55,-52.5,-3.));
#2207=CARTESIAN_POINT('',(51.85,-52.5,-5.5));
#2208=CARTESIAN_POINT('Origin',(50.55,-52.5,-5.5));
#2209=CARTESIAN_POINT('Origin',(-50.55,-52.5,-3.));
#2210=CARTESIAN_POINT('',(-50.55,-52.5,-3.));
#2211=CARTESIAN_POINT('Origin',(-51.85,-52.5,-5.5));
#2212=CARTESIAN_POINT('',(-51.85,-52.5,-5.5));
#2213=CARTESIAN_POINT('Origin',(-52.35,-52.5,-5.5));
#2214=CARTESIAN_POINT('Origin',(-62.6,-52.65,-4.7));
#2215=CARTESIAN_POINT('',(-62.6,-52.65,-4.7));
#2216=CARTESIAN_POINT('',(-62.6,-52.65,-4.7));
#2217=CARTESIAN_POINT('',(-62.6,-52.65,-4.7));
#2218=CARTESIAN_POINT('',(-57.4,-52.65,-4.7));
#2219=CARTESIAN_POINT('',(-62.6,-52.65,-4.7));
#2220=CARTESIAN_POINT('',(-57.4,-52.65,-4.7));
#2221=CARTESIAN_POINT('Origin',(-62.6,-52.65,-4.7));
#2222=CARTESIAN_POINT('',(-62.6,-52.65,0.7));
#2223=CARTESIAN_POINT('',(-62.6,-52.65,0.7));
#2224=CARTESIAN_POINT('',(-62.6,-52.65,-4.7));
#2225=CARTESIAN_POINT('Origin',(-62.6,-52.65,0.7));
#2226=CARTESIAN_POINT('',(-57.4,-52.65,0.7));
#2227=CARTESIAN_POINT('',(-57.4,-52.65,0.7));
#2228=CARTESIAN_POINT('',(-62.6,-52.65,0.7));
#2229=CARTESIAN_POINT('Origin',(-57.4,-52.65,-4.7));
#2230=CARTESIAN_POINT('',(-57.4,-52.65,-4.7));
#2231=CARTESIAN_POINT('Origin',(57.4,-52.65,-4.7));
#2232=CARTESIAN_POINT('',(57.4,-52.65,-4.7));
#2233=CARTESIAN_POINT('',(57.4,-52.65,-4.7));
#2234=CARTESIAN_POINT('',(57.4,-52.65,-4.7));
#2235=CARTESIAN_POINT('',(62.6,-52.65,-4.7));
#2236=CARTESIAN_POINT('',(57.4,-52.65,-4.7));
#2237=CARTESIAN_POINT('',(62.6,-52.65,-4.7));
#2238=CARTESIAN_POINT('Origin',(57.4,-52.65,-4.7));
#2239=CARTESIAN_POINT('',(57.4,-52.65,0.7));
#2240=CARTESIAN_POINT('',(57.4,-52.65,0.7));
#2241=CARTESIAN_POINT('',(57.4,-52.65,-4.7));
#2242=CARTESIAN_POINT('Origin',(57.4,-52.65,0.7));
#2243=CARTESIAN_POINT('',(62.6,-52.65,0.7));
#2244=CARTESIAN_POINT('',(62.6,-52.65,0.7));
#2245=CARTESIAN_POINT('',(57.4,-52.65,0.7));
#2246=CARTESIAN_POINT('Origin',(62.6,-52.65,-4.7));
#2247=CARTESIAN_POINT('',(62.6,-52.65,-4.7));
#2248=CARTESIAN_POINT('Origin',(20.,-54.,4.7));
#2249=CARTESIAN_POINT('Origin',(20.,-54.,4.7));
#2250=CARTESIAN_POINT('Origin',(20.,-54.,6.5));
#2251=CARTESIAN_POINT('Origin',(20.,-54.,4.7));
#2252=CARTESIAN_POINT('',(20.,-54.5,4.7));
#2253=CARTESIAN_POINT('',(20.,-56.5,4.7));
#2254=CARTESIAN_POINT('',(20.,-54.5,4.7));
#2255=CARTESIAN_POINT('Origin',(20.,-54.,6.5));
#2256=CARTESIAN_POINT('',(20.,-54.5,6.5));
#2257=CARTESIAN_POINT('',(20.,-56.5,6.5));
#2258=CARTESIAN_POINT('',(20.,-54.5,6.5));
#2259=CARTESIAN_POINT('Origin',(-62.6,-52.65,-4.7));
#2260=CARTESIAN_POINT('',(-61.3,-52.65,-4.));
#2261=CARTESIAN_POINT('Origin',(-60.,-52.,-4.));
#2262=CARTESIAN_POINT('Origin',(57.4,-52.65,-4.7));
#2263=CARTESIAN_POINT('',(58.7,-52.65,-4.));
#2264=CARTESIAN_POINT('Origin',(60.,-52.,-4.));
#2265=CARTESIAN_POINT('Origin',(20.,-54.,4.7));
#2266=CARTESIAN_POINT('Origin',(20.,-54.,6.5));
#2267=CARTESIAN_POINT('',(11.1652636959888,31.1251997349819,23.7068079233305));
#2268=UNCERTAINTY_MEASURE_WITH_UNIT(LENGTH_MEASURE(0.01),#2274,
'DISTANCE_ACCURACY_VALUE',
'Maximum model space distance between geometric entities at asserted c
onnectivities');
#2269=UNCERTAINTY_MEASURE_WITH_UNIT(LENGTH_MEASURE(0.01),#2274,
'DISTANCE_ACCURACY_VALUE',
'Maximum model space distance between geometric entities at asserted c
onnectivities');
#2270=UNCERTAINTY_MEASURE_WITH_UNIT(LENGTH_MEASURE(0.01),#2274,
'DISTANCE_ACCURACY_VALUE',
'Maximum model space distance between geometric entities at asserted c
onnectivities');
#2271=(
GEOMETRIC_REPRESENTATION_CONTEXT(3)
GLOBAL_UNCERTAINTY_ASSIGNED_CONTEXT((#2268))
GLOBAL_UNIT_ASSIGNED_CONTEXT((#2274,#2276,#2277))
REPRESENTATION_CONTEXT('','3D')
);
#2272=(
GEOMETRIC_REPRESENTATION_CONTEXT(3)
GLOBAL_UNCERTAINTY_ASSIGNED_CONTEXT((#2269))
GLOBAL_UNIT_ASSIGNED_CONTEXT((#2274,#2276,#2277))
REPRESENTATION_CONTEXT('','3D')
);
#2273=(
GEOMETRIC_REPRESENTATION_CONTEXT(3)
GLOBAL_UNCERTAINTY_ASSIGNED_CONTEXT((#2270))
GLOBAL_UNIT_ASSIGNED_CONTEXT((#2274,#2276,#2277))
REPRESENTATION_CONTEXT('','3D')
);
#2274=(
LENGTH_UNIT()
NAMED_UNIT(*)
SI_UNIT(.MILLI.,.METRE.)
);
#2275=(
LENGTH_UNIT()
NAMED_UNIT(*)
SI_UNIT($,.METRE.)
);
#2276=(
NAMED_UNIT(*)
PLANE_ANGLE_UNIT()
SI_UNIT($,.RADIAN.)
);
#2277=(
NAMED_UNIT(*)
SI_UNIT($,.STERADIAN.)
SOLID_ANGLE_UNIT()
);
#2278=SHAPE_DEFINITION_REPRESENTATION(#2280,#2283);
#2279=SHAPE_DEFINITION_REPRESENTATION(#2281,#2284);
#2280=PRODUCT_DEFINITION_SHAPE('',$,#2286);
#2281=PRODUCT_DEFINITION_SHAPE('',$,#2287);
#2282=PRODUCT_DEFINITION_SHAPE($,$,#14);
#2283=SHAPE_REPRESENTATION('',(#1412,#1508),#2271);
#2284=SHAPE_REPRESENTATION('',(#1413),#2272);
#2285=PRODUCT_DEFINITION_CONTEXT('part definition',#2293,'design');
#2286=PRODUCT_DEFINITION('plate holder','plate holder v76',#2288,#2285);
#2287=PRODUCT_DEFINITION('plate-holder_backlight',
'plate-holder_backlight',#2289,#2285);
#2288=PRODUCT_DEFINITION_FORMATION('',$,#2295);
#2289=PRODUCT_DEFINITION_FORMATION('',$,#2296);
#2290=PRODUCT_RELATED_PRODUCT_CATEGORY('plate holder v76',
'plate holder v76',(#2295));
#2291=PRODUCT_RELATED_PRODUCT_CATEGORY('plate-holder_backlight',
'plate-holder_backlight',(#2296));
#2292=APPLICATION_PROTOCOL_DEFINITION('international standard',
'automotive_design',2009,#2293);
#2293=APPLICATION_CONTEXT(
'Core Data for Automotive Mechanical Design Process');
#2294=PRODUCT_CONTEXT('part definition',#2293,'mechanical');
#2295=PRODUCT('plate holder','plate holder v76',$,(#2294));
#2296=PRODUCT('plate-holder_backlight','plate-holder_backlight',$,(#2294));
#2297=PRESENTATION_STYLE_ASSIGNMENT((#2299));
#2298=PRESENTATION_STYLE_ASSIGNMENT((#2300));
#2299=SURFACE_STYLE_USAGE(.BOTH.,#2301);
#2300=SURFACE_STYLE_USAGE(.BOTH.,#2302);
#2301=SURFACE_SIDE_STYLE('',(#2303));
#2302=SURFACE_SIDE_STYLE('',(#2304));
#2303=SURFACE_STYLE_FILL_AREA(#2305);
#2304=SURFACE_STYLE_FILL_AREA(#2306);
#2305=FILL_AREA_STYLE('Stahl - satiniert',(#2307));
#2306=FILL_AREA_STYLE('Opaque(204,204,204)',(#2308));
#2307=FILL_AREA_STYLE_COLOUR('Stahl - satiniert',#2309);
#2308=FILL_AREA_STYLE_COLOUR('Opaque(204,204,204)',#2310);
#2309=COLOUR_RGB('Stahl - satiniert',0.627450980392157,0.627450980392157,
0.627450980392157);
#2310=COLOUR_RGB('Opaque(204,204,204)',0.8,0.8,0.8);
ENDSEC;
END-ISO-10303-21;
